<svg width="118" height="22" viewBox="0 0 118 22" fill="none" xmlns="http://www.w3.org/2000/svg">
<path d="M0 4C0 1.79086 1.79086 0 4 0H114C116.209 0 118 1.79086 118 4V18C118 20.2091 116.209 22 114 22H4C1.79086 22 0 20.2091 0 18V4Z" fill="#FFF1F3"/>
<circle cx="11" cy="11" r="3" fill="#E31B53"/>
<path d="M21.0568 6.27273H22.3182L25.2841 13.517H25.3864L28.3523 6.27273H29.6136V15H28.625V8.36932H28.5398L25.8125 15H24.858L22.1307 8.36932H22.0455V15H21.0568V6.27273ZM35.7212 12.3239V8.45455H36.7269V15H35.7212V13.892H35.6531C35.4996 14.2244 35.261 14.5071 34.9371 14.7401C34.6133 14.9702 34.2042 15.0852 33.7099 15.0852C33.3008 15.0852 32.9371 14.9957 32.619 14.8168C32.3008 14.6349 32.0508 14.3622 31.869 13.9986C31.6871 13.6321 31.5962 13.1705 31.5962 12.6136V8.45455H32.6019V12.5455C32.6019 13.0227 32.7354 13.4034 33.0025 13.6875C33.2724 13.9716 33.6161 14.1136 34.0337 14.1136C34.2837 14.1136 34.538 14.0497 34.7965 13.9219C35.0579 13.794 35.2766 13.598 35.4528 13.3338C35.6317 13.0696 35.7212 12.733 35.7212 12.3239ZM39.5746 6.27273V15H38.5689V6.27273H39.5746ZM44.2631 8.45455V9.30682H40.8711V8.45455H44.2631ZM41.8597 6.88636H42.8654V13.125C42.8654 13.4091 42.9066 13.6222 42.989 13.7642C43.0742 13.9034 43.1822 13.9972 43.3129 14.0455C43.4464 14.0909 43.587 14.1136 43.7347 14.1136C43.8455 14.1136 43.9364 14.108 44.0075 14.0966C44.0785 14.0824 44.1353 14.071 44.1779 14.0625L44.3825 14.9659C44.3143 14.9915 44.2191 15.017 44.0969 15.0426C43.9748 15.071 43.82 15.0852 43.6325 15.0852C43.3484 15.0852 43.07 15.0241 42.7972 14.902C42.5273 14.7798 42.3029 14.5938 42.1239 14.3438C41.9478 14.0938 41.8597 13.7784 41.8597 13.3977V6.88636ZM45.7759 15V8.45455H46.7816V15H45.7759ZM46.2873 7.36364C46.0913 7.36364 45.9222 7.29688 45.7802 7.16335C45.641 7.02983 45.5714 6.86932 45.5714 6.68182C45.5714 6.49432 45.641 6.33381 45.7802 6.20028C45.9222 6.06676 46.0913 6 46.2873 6C46.4833 6 46.6509 6.06676 46.7901 6.20028C46.9322 6.33381 47.0032 6.49432 47.0032 6.68182C47.0032 6.86932 46.9322 7.02983 46.7901 7.16335C46.6509 7.29688 46.4833 7.36364 46.2873 7.36364ZM48.6236 17.4545V8.45455H49.5952V9.49432H49.7145C49.7884 9.38068 49.8906 9.2358 50.0213 9.05966C50.1548 8.88068 50.3452 8.72159 50.5923 8.58239C50.8423 8.44034 51.1804 8.36932 51.6065 8.36932C52.1577 8.36932 52.6435 8.5071 53.0639 8.78267C53.4844 9.05824 53.8125 9.44886 54.0483 9.95455C54.2841 10.4602 54.402 11.0568 54.402 11.7443C54.402 12.4375 54.2841 13.0384 54.0483 13.5469C53.8125 14.0526 53.4858 14.4446 53.0682 14.723C52.6506 14.9986 52.169 15.1364 51.6236 15.1364C51.2031 15.1364 50.8665 15.0668 50.6136 14.9276C50.3608 14.7855 50.1662 14.625 50.0298 14.446C49.8935 14.2642 49.7884 14.1136 49.7145 13.9943H49.6293V17.4545H48.6236ZM49.6122 11.7273C49.6122 12.2216 49.6847 12.6577 49.8295 13.0355C49.9744 13.4105 50.1861 13.7045 50.4645 13.9176C50.7429 14.1278 51.0838 14.233 51.4872 14.233C51.9077 14.233 52.2585 14.1222 52.5398 13.9006C52.8239 13.6761 53.0369 13.375 53.179 12.9972C53.3239 12.6165 53.3963 12.1932 53.3963 11.7273C53.3963 11.267 53.3253 10.8523 53.1832 10.483C53.044 10.1108 52.8324 9.81676 52.5483 9.60085C52.267 9.3821 51.9134 9.27273 51.4872 9.27273C51.0781 9.27273 50.7344 9.37642 50.456 9.58381C50.1776 9.78835 49.9673 10.0753 49.8253 10.4446C49.6832 10.8111 49.6122 11.2386 49.6122 11.7273ZM56.9418 6.27273V15H55.9361V6.27273H56.9418ZM60.7099 15.1534C60.2951 15.1534 59.9187 15.0753 59.5806 14.919C59.2425 14.7599 58.9741 14.5312 58.7752 14.233C58.5763 13.9318 58.4769 13.5682 58.4769 13.142C58.4769 12.767 58.5508 12.4631 58.6985 12.2301C58.8462 11.9943 59.0437 11.8097 59.2908 11.6761C59.538 11.5426 59.8107 11.4432 60.109 11.3778C60.4102 11.3097 60.7127 11.2557 61.0167 11.2159C61.4144 11.1648 61.7369 11.1264 61.984 11.1009C62.234 11.0724 62.4158 11.0256 62.5295 10.9602C62.646 10.8949 62.7042 10.7812 62.7042 10.6193V10.5852C62.7042 10.1648 62.5891 9.83807 62.359 9.60511C62.1317 9.37216 61.7866 9.25568 61.3235 9.25568C60.8434 9.25568 60.467 9.3608 60.1942 9.57102C59.9215 9.78125 59.7298 10.0057 59.619 10.2443L58.6644 9.90341C58.8349 9.50568 59.0621 9.19602 59.3462 8.97443C59.6332 8.75 59.9457 8.59375 60.2837 8.50568C60.6246 8.41477 60.9599 8.36932 61.2894 8.36932C61.4996 8.36932 61.7411 8.39489 62.0138 8.44602C62.2894 8.49432 62.555 8.59517 62.8107 8.74858C63.0692 8.90199 63.2837 9.13352 63.4542 9.44318C63.6246 9.75284 63.7099 10.1676 63.7099 10.6875V15H62.7042V14.1136H62.6531C62.5849 14.2557 62.4712 14.4077 62.3121 14.5696C62.1531 14.7315 61.9414 14.8693 61.6772 14.983C61.413 15.0966 61.0906 15.1534 60.7099 15.1534ZM60.8633 14.25C61.261 14.25 61.5962 14.1719 61.869 14.0156C62.1445 13.8594 62.3519 13.6577 62.4911 13.4105C62.6332 13.1634 62.7042 12.9034 62.7042 12.6307V11.7102C62.6616 11.7614 62.5678 11.8082 62.4229 11.8509C62.2809 11.8906 62.1161 11.9261 61.9286 11.9574C61.744 11.9858 61.5636 12.0114 61.3874 12.0341C61.2141 12.054 61.0735 12.071 60.9656 12.0852C60.7042 12.1193 60.4599 12.1747 60.2326 12.2514C60.0082 12.3253 59.8263 12.4375 59.6871 12.5881C59.5508 12.7358 59.4826 12.9375 59.4826 13.1932C59.4826 13.5426 59.6119 13.8068 59.8704 13.9858C60.1317 14.1619 60.4627 14.25 60.8633 14.25ZM65.9588 17.4545C65.7884 17.4545 65.6364 17.4403 65.5028 17.4119C65.3693 17.3864 65.277 17.3608 65.2259 17.3352L65.4815 16.4489C65.7259 16.5114 65.9418 16.5341 66.1293 16.517C66.3168 16.5 66.483 16.4162 66.6278 16.2656C66.7756 16.1179 66.9105 15.8778 67.0327 15.5455L67.2202 15.0341L64.7997 8.45455H65.8906L67.6974 13.6705H67.7656L69.5724 8.45455H70.6634L67.8849 15.9545C67.7599 16.2926 67.6051 16.5724 67.4205 16.794C67.2358 17.0185 67.0213 17.1847 66.777 17.2926C66.5355 17.4006 66.2628 17.4545 65.9588 17.4545ZM74.5007 15.1364C73.87 15.1364 73.326 14.9972 72.8686 14.7188C72.4141 14.4375 72.0632 14.0455 71.8161 13.5426C71.5717 13.0369 71.4496 12.4489 71.4496 11.7784C71.4496 11.108 71.5717 10.517 71.8161 10.0057C72.0632 9.49148 72.407 9.09091 72.8473 8.80398C73.2905 8.5142 73.8075 8.36932 74.3984 8.36932C74.7393 8.36932 75.076 8.42614 75.4084 8.53977C75.7408 8.65341 76.0433 8.83807 76.3161 9.09375C76.5888 9.34659 76.8061 9.68182 76.968 10.0994C77.13 10.517 77.2109 11.0312 77.2109 11.642V12.0682H72.1655V11.1989H76.1882C76.1882 10.8295 76.1143 10.5 75.9666 10.2102C75.8217 9.92045 75.6143 9.69176 75.3445 9.52415C75.0774 9.35653 74.7621 9.27273 74.3984 9.27273C73.9979 9.27273 73.6513 9.37216 73.3587 9.57102C73.0689 9.76705 72.8459 10.0227 72.6896 10.3381C72.5334 10.6534 72.4553 10.9915 72.4553 11.3523V11.9318C72.4553 12.4261 72.5405 12.8452 72.7109 13.1889C72.8842 13.5298 73.1243 13.7898 73.4311 13.9688C73.7379 14.1449 74.0945 14.233 74.5007 14.233C74.7649 14.233 75.0036 14.196 75.2166 14.1222C75.4325 14.0455 75.6186 13.9318 75.7749 13.7812C75.9311 13.6278 76.0518 13.4375 76.1371 13.2102L77.1087 13.483C77.0064 13.8125 76.8345 14.1023 76.593 14.3523C76.3516 14.5994 76.0533 14.7926 75.6982 14.9318C75.343 15.0682 74.9439 15.1364 74.5007 15.1364ZM78.7408 15V8.45455H79.7124V9.44318H79.7805C79.8999 9.11932 80.1158 8.85653 80.4283 8.65483C80.7408 8.45312 81.093 8.35227 81.4851 8.35227C81.5589 8.35227 81.6513 8.35369 81.7621 8.35653C81.8729 8.35937 81.9567 8.36364 82.0135 8.36932V9.39205C81.9794 9.38352 81.9013 9.37074 81.7791 9.35369C81.6598 9.33381 81.5334 9.32386 81.3999 9.32386C81.0817 9.32386 80.7976 9.39062 80.5476 9.52415C80.3004 9.65483 80.1044 9.83665 79.9595 10.0696C79.8175 10.2997 79.7464 10.5625 79.7464 10.858V15H78.7408ZM86.717 15V6.27273H89.6658C90.3477 6.27273 90.9073 6.3892 91.3448 6.62216C91.7823 6.85227 92.1062 7.16903 92.3164 7.57244C92.5266 7.97585 92.6317 8.43466 92.6317 8.94886C92.6317 9.46307 92.5266 9.91903 92.3164 10.3168C92.1062 10.7145 91.7837 11.027 91.3491 11.2543C90.9144 11.4787 90.359 11.5909 89.6829 11.5909H87.2965V10.6364H89.6488C90.1147 10.6364 90.4897 10.5682 90.7738 10.4318C91.0607 10.2955 91.2681 10.1023 91.396 9.85227C91.5266 9.59943 91.592 9.2983 91.592 8.94886C91.592 8.59943 91.5266 8.29403 91.396 8.03267C91.2653 7.77131 91.0565 7.5696 90.7695 7.42756C90.4826 7.28267 90.1033 7.21023 89.6317 7.21023H87.7738V15H86.717ZM90.8249 11.0795L92.9727 15H91.7454L89.6317 11.0795H90.8249ZM94.3928 15V6.27273H97.3416C98.0263 6.27273 98.5859 6.39631 99.0206 6.64347C99.4581 6.88778 99.782 7.21875 99.9922 7.63636C100.202 8.05398 100.308 8.51989 100.308 9.03409C100.308 9.5483 100.202 10.0156 99.9922 10.4361C99.7848 10.8565 99.4638 11.1918 99.0291 11.4418C98.5945 11.6889 98.0376 11.8125 97.3587 11.8125H95.245V10.875H97.3246C97.7933 10.875 98.1697 10.794 98.4538 10.6321C98.7379 10.4702 98.9439 10.2514 99.0717 9.97585C99.2024 9.69744 99.2678 9.38352 99.2678 9.03409C99.2678 8.68466 99.2024 8.37216 99.0717 8.09659C98.9439 7.82102 98.7365 7.60511 98.4496 7.44886C98.1626 7.28977 97.782 7.21023 97.3075 7.21023H95.4496V15H94.3928ZM107.976 9C107.882 8.71307 107.759 8.45597 107.605 8.22869C107.455 7.99858 107.274 7.80256 107.064 7.64062C106.857 7.47869 106.621 7.35511 106.357 7.26989C106.092 7.18466 105.803 7.14205 105.487 7.14205C104.97 7.14205 104.5 7.27557 104.077 7.54261C103.653 7.80966 103.317 8.20312 103.067 8.72301C102.817 9.2429 102.692 9.88068 102.692 10.6364C102.692 11.392 102.818 12.0298 103.071 12.5497C103.324 13.0696 103.666 13.4631 104.098 13.7301C104.53 13.9972 105.016 14.1307 105.555 14.1307C106.055 14.1307 106.496 14.0241 106.876 13.8111C107.26 13.5952 107.558 13.2912 107.771 12.8991C107.987 12.5043 108.095 12.0398 108.095 11.5057L108.419 11.5739H105.794V10.6364H109.118V11.5739C109.118 12.2926 108.964 12.9176 108.658 13.4489C108.354 13.9801 107.933 14.392 107.396 14.6847C106.862 14.9744 106.249 15.1193 105.555 15.1193C104.783 15.1193 104.104 14.9375 103.518 14.5739C102.936 14.2102 102.482 13.6932 102.155 13.0227C101.831 12.3523 101.669 11.5568 101.669 10.6364C101.669 9.94602 101.761 9.32528 101.946 8.77415C102.134 8.22017 102.398 7.74858 102.739 7.35938C103.08 6.97017 103.483 6.67188 103.949 6.46449C104.415 6.2571 104.928 6.15341 105.487 6.15341C105.947 6.15341 106.376 6.22301 106.774 6.36222C107.175 6.49858 107.531 6.69318 107.844 6.94602C108.159 7.19602 108.422 7.49574 108.632 7.84517C108.842 8.19176 108.987 8.5767 109.067 9H107.976Z" fill="#E31B53"/>
</svg>
