<svg width="232" height="18" viewBox="0 0 232 18" fill="none" xmlns="http://www.w3.org/2000/svg">
<path d="M6 3L8.03951 6.37501L12 7.20163L9.3 10.1141L9.7082 14L6 12.425L2.2918 14L2.7 10.1141L0 7.20163L3.96049 6.37501L6 3Z" fill="#FEC84B"/>
<path d="M2.2918 14L6 12.425V3L3.96049 6.37501L0 7.20163L2.7 10.1141L2.2918 14Z" fill="#FEC84B"/>
<path d="M22 3L24.0395 6.37501L28 7.20163L25.3 10.1141L25.7082 14L22 12.425L18.2918 14L18.7 10.1141L16 7.20163L19.9605 6.37501L22 3Z" fill="#FEC84B"/>
<path d="M18.2918 14L22 12.425V3L19.9605 6.37501L16 7.20163L18.7 10.1141L18.2918 14Z" fill="#FEC84B"/>
<path d="M38 3L40.0395 6.37501L44 7.20163L41.3 10.1141L41.7082 14L38 12.425L34.2918 14L34.7 10.1141L32 7.20163L35.9605 6.37501L38 3Z" fill="#FEC84B"/>
<path d="M34.2918 14L38 12.425V3L35.9605 6.37501L32 7.20163L34.7 10.1141L34.2918 14Z" fill="#FEC84B"/>
<path d="M54 3L56.0395 6.37501L60 7.20163L57.3 10.1141L57.7082 14L54 12.425L50.2918 14L50.7 10.1141L48 7.20163L51.9605 6.37501L54 3Z" fill="#FEC84B"/>
<path d="M50.2918 14L54 12.425V3L51.9605 6.37501L48 7.20163L50.7 10.1141L50.2918 14Z" fill="#FEC84B"/>
<path d="M70 3L72.0395 6.37501L76 7.20163L73.3 10.1141L73.7082 14L70 12.425L66.2918 14L66.7 10.1141L64 7.20163L67.9605 6.37501L70 3Z" fill="#EAECF0"/>
<path opacity="0.6" d="M87.9716 4.27273V13H86.9148V5.38068H86.8636L84.733 6.79545V5.72159L86.9148 4.27273H87.9716ZM91.483 11.8068L91.4148 12.267C91.3665 12.5909 91.2926 12.9375 91.1932 13.3068C91.0966 13.6761 90.9957 14.0241 90.8906 14.3509C90.7855 14.6776 90.6989 14.9375 90.6307 15.1307H89.8636C89.9006 14.9489 89.9489 14.7088 90.0085 14.4105C90.0682 14.1122 90.1278 13.7784 90.1875 13.4091C90.25 13.0426 90.3011 12.6676 90.3409 12.2841L90.392 11.8068H91.483ZM95.8551 13.1193C95.2699 13.1193 94.7528 13.0156 94.304 12.8082C93.858 12.598 93.5099 12.3097 93.2599 11.9432C93.0099 11.5739 92.8864 11.1534 92.8892 10.6818C92.8864 10.3125 92.9588 9.97159 93.1065 9.65909C93.2543 9.34375 93.456 9.08097 93.7116 8.87074C93.9702 8.65767 94.2585 8.52273 94.5767 8.46591V8.41477C94.1591 8.30682 93.8267 8.07244 93.5795 7.71165C93.3324 7.34801 93.2102 6.93466 93.2131 6.47159C93.2102 6.02841 93.3224 5.6321 93.5497 5.28267C93.777 4.93324 94.0895 4.65767 94.4872 4.45597C94.8878 4.25426 95.3438 4.15341 95.8551 4.15341C96.3608 4.15341 96.8125 4.25426 97.2102 4.45597C97.608 4.65767 97.9205 4.93324 98.1477 5.28267C98.3778 5.6321 98.4943 6.02841 98.4972 6.47159C98.4943 6.93466 98.3679 7.34801 98.1179 7.71165C97.8707 8.07244 97.5426 8.30682 97.1335 8.41477V8.46591C97.4489 8.52273 97.733 8.65767 97.9858 8.87074C98.2386 9.08097 98.4403 9.34375 98.5909 9.65909C98.7415 9.97159 98.8182 10.3125 98.821 10.6818C98.8182 11.1534 98.6903 11.5739 98.4375 11.9432C98.1875 12.3097 97.8395 12.598 97.3935 12.8082C96.9503 13.0156 96.4375 13.1193 95.8551 13.1193ZM95.8551 12.1818C96.25 12.1818 96.5909 12.1179 96.8778 11.9901C97.1648 11.8622 97.3864 11.6818 97.5426 11.4489C97.6989 11.2159 97.7784 10.9432 97.7812 10.6307C97.7784 10.3011 97.6932 10.0099 97.5256 9.7571C97.358 9.50426 97.1293 9.3054 96.8395 9.16051C96.5526 9.01562 96.2244 8.94318 95.8551 8.94318C95.483 8.94318 95.1506 9.01562 94.858 9.16051C94.5682 9.3054 94.3395 9.50426 94.1719 9.7571C94.0071 10.0099 93.9261 10.3011 93.929 10.6307C93.9261 10.9432 94.0014 11.2159 94.1548 11.4489C94.3111 11.6818 94.5341 11.8622 94.8239 11.9901C95.1136 12.1179 95.4574 12.1818 95.8551 12.1818ZM95.8551 8.03977C96.1676 8.03977 96.4446 7.97727 96.6861 7.85227C96.9304 7.72727 97.1222 7.55256 97.2614 7.32812C97.4006 7.10369 97.4716 6.84091 97.4744 6.53977C97.4716 6.24432 97.402 5.98722 97.2656 5.76847C97.1293 5.54687 96.9403 5.37642 96.6989 5.2571C96.4574 5.13494 96.1761 5.07386 95.8551 5.07386C95.5284 5.07386 95.2429 5.13494 94.9986 5.2571C94.7543 5.37642 94.5653 5.54687 94.4318 5.76847C94.2983 5.98722 94.233 6.24432 94.2358 6.53977C94.233 6.84091 94.2997 7.10369 94.4361 7.32812C94.5753 7.55256 94.767 7.72727 95.0114 7.85227C95.2557 7.97727 95.5369 8.03977 95.8551 8.03977ZM100.454 13V12.233L103.335 9.07955C103.673 8.71023 103.951 8.3892 104.17 8.11648C104.389 7.84091 104.551 7.58239 104.656 7.34091C104.764 7.09659 104.818 6.84091 104.818 6.57386C104.818 6.26705 104.744 6.00142 104.596 5.77699C104.451 5.55256 104.252 5.37926 104 5.2571C103.747 5.13494 103.463 5.07386 103.147 5.07386C102.812 5.07386 102.52 5.14347 102.27 5.28267C102.022 5.41903 101.831 5.6108 101.694 5.85795C101.561 6.10511 101.494 6.39489 101.494 6.72727H100.488C100.488 6.21591 100.606 5.76705 100.842 5.38068C101.078 4.99432 101.399 4.69318 101.805 4.47727C102.214 4.26136 102.673 4.15341 103.181 4.15341C103.693 4.15341 104.146 4.26136 104.541 4.47727C104.936 4.69318 105.245 4.98437 105.47 5.35085C105.694 5.71733 105.806 6.125 105.806 6.57386C105.806 6.89489 105.748 7.20881 105.632 7.51562C105.518 7.8196 105.319 8.15909 105.035 8.53409C104.754 8.90625 104.363 9.3608 103.863 9.89773L101.903 11.9943V12.0625H105.96V13H100.454ZM110.566 13.1193C109.924 13.1193 109.377 12.9446 108.926 12.5952C108.474 12.2429 108.129 11.733 107.89 11.0653C107.652 10.3949 107.532 9.58523 107.532 8.63636C107.532 7.69318 107.652 6.88778 107.89 6.22017C108.132 5.54972 108.478 5.03835 108.93 4.68608C109.385 4.33097 109.93 4.15341 110.566 4.15341C111.203 4.15341 111.747 4.33097 112.199 4.68608C112.653 5.03835 113 5.54972 113.238 6.22017C113.48 6.88778 113.6 7.69318 113.6 8.63636C113.6 9.58523 113.481 10.3949 113.243 11.0653C113.004 11.733 112.659 12.2429 112.207 12.5952C111.755 12.9446 111.208 13.1193 110.566 13.1193ZM110.566 12.1818C111.203 12.1818 111.697 11.875 112.049 11.2614C112.402 10.6477 112.578 9.77273 112.578 8.63636C112.578 7.88068 112.497 7.23722 112.335 6.70597C112.176 6.17472 111.946 5.76989 111.645 5.49148C111.346 5.21307 110.987 5.07386 110.566 5.07386C109.936 5.07386 109.443 5.38494 109.088 6.0071C108.733 6.62642 108.555 7.50284 108.555 8.63636C108.555 9.39205 108.635 10.0341 108.794 10.5625C108.953 11.0909 109.181 11.4929 109.48 11.7685C109.781 12.044 110.143 12.1818 110.566 12.1818Z" fill="#475467"/>
</svg>
