<svg width="92" height="22" viewBox="0 0 92 22" fill="none" xmlns="http://www.w3.org/2000/svg">
<path d="M0 4C0 1.79086 1.79086 0 4 0H88C90.2091 0 92 1.79086 92 4V18C92 20.2091 90.2091 22 88 22H4C1.79086 22 0 20.2091 0 18V4Z" fill="#F0F9FF"/>
<circle cx="11" cy="11" r="3" fill="#0086C9"/>
<path d="M21.4148 15H20.3068L23.5114 6.27273H24.6023L27.8068 15H26.6989L24.0909 7.65341H24.0227L21.4148 15ZM21.8239 11.5909H26.2898V12.5284H21.8239V11.5909ZM31.6889 15.1364C31.0753 15.1364 30.5469 14.9915 30.1037 14.7017C29.6605 14.4119 29.3196 14.0128 29.081 13.5043C28.8423 12.9957 28.723 12.4148 28.723 11.7614C28.723 11.0966 28.8452 10.5099 29.0895 10.0014C29.3366 9.49006 29.6804 9.09091 30.1207 8.80398C30.5639 8.5142 31.081 8.36932 31.6719 8.36932C32.1321 8.36932 32.5469 8.45455 32.9162 8.625C33.2855 8.79545 33.5881 9.03409 33.8239 9.34091C34.0597 9.64773 34.206 10.0057 34.2628 10.4148H33.2571C33.1804 10.1165 33.0099 9.85227 32.7457 9.62216C32.4844 9.3892 32.1321 9.27273 31.6889 9.27273C31.2969 9.27273 30.9531 9.375 30.6577 9.57955C30.3651 9.78125 30.1364 10.0668 29.9716 10.4361C29.8097 10.8026 29.7287 11.233 29.7287 11.7273C29.7287 12.233 29.8082 12.6733 29.9673 13.0483C30.1293 13.4233 30.3565 13.7145 30.6491 13.9219C30.9446 14.1293 31.2912 14.233 31.6889 14.233C31.9503 14.233 32.1875 14.1875 32.4006 14.0966C32.6136 14.0057 32.794 13.875 32.9418 13.7045C33.0895 13.5341 33.1946 13.3295 33.2571 13.0909H34.2628C34.206 13.4773 34.0653 13.8253 33.8409 14.1349C33.6193 14.4418 33.3253 14.6861 32.9588 14.8679C32.5952 15.0469 32.1719 15.1364 31.6889 15.1364ZM38.5795 8.45455V9.30682H35.1875V8.45455H38.5795ZM36.1761 6.88636H37.1818V13.125C37.1818 13.4091 37.223 13.6222 37.3054 13.7642C37.3906 13.9034 37.4986 13.9972 37.6293 14.0455C37.7628 14.0909 37.9034 14.1136 38.0511 14.1136C38.1619 14.1136 38.2528 14.108 38.3239 14.0966C38.3949 14.0824 38.4517 14.071 38.4943 14.0625L38.6989 14.9659C38.6307 14.9915 38.5355 15.017 38.4134 15.0426C38.2912 15.071 38.1364 15.0852 37.9489 15.0852C37.6648 15.0852 37.3864 15.0241 37.1136 14.902C36.8438 14.7798 36.6193 14.5938 36.4403 14.3438C36.2642 14.0938 36.1761 13.7784 36.1761 13.3977V6.88636ZM40.0923 15V8.45455H41.098V15H40.0923ZM40.6037 7.36364C40.4077 7.36364 40.2386 7.29688 40.0966 7.16335C39.9574 7.02983 39.8878 6.86932 39.8878 6.68182C39.8878 6.49432 39.9574 6.33381 40.0966 6.20028C40.2386 6.06676 40.4077 6 40.6037 6C40.7997 6 40.9673 6.06676 41.1065 6.20028C41.2486 6.33381 41.3196 6.49432 41.3196 6.68182C41.3196 6.86932 41.2486 7.02983 41.1065 7.16335C40.9673 7.29688 40.7997 7.36364 40.6037 7.36364ZM45.5991 15.1364C45.0082 15.1364 44.4897 14.9957 44.0437 14.7145C43.6005 14.4332 43.2539 14.0398 43.0039 13.5341C42.7567 13.0284 42.6332 12.4375 42.6332 11.7614C42.6332 11.0795 42.7567 10.4844 43.0039 9.97585C43.2539 9.46733 43.6005 9.07244 44.0437 8.79119C44.4897 8.50994 45.0082 8.36932 45.5991 8.36932C46.19 8.36932 46.707 8.50994 47.1502 8.79119C47.5962 9.07244 47.9428 9.46733 48.19 9.97585C48.44 10.4844 48.565 11.0795 48.565 11.7614C48.565 12.4375 48.44 13.0284 48.19 13.5341C47.9428 14.0398 47.5962 14.4332 47.1502 14.7145C46.707 14.9957 46.19 15.1364 45.5991 15.1364ZM45.5991 14.233C46.0479 14.233 46.4173 14.1179 46.707 13.8878C46.9968 13.6577 47.2113 13.3551 47.3505 12.9801C47.4897 12.6051 47.5593 12.1989 47.5593 11.7614C47.5593 11.3239 47.4897 10.9162 47.3505 10.5384C47.2113 10.1605 46.9968 9.85511 46.707 9.62216C46.4173 9.3892 46.0479 9.27273 45.5991 9.27273C45.1502 9.27273 44.7809 9.3892 44.4911 9.62216C44.2013 9.85511 43.9869 10.1605 43.8477 10.5384C43.7085 10.9162 43.6388 11.3239 43.6388 11.7614C43.6388 12.1989 43.7085 12.6051 43.8477 12.9801C43.9869 13.3551 44.2013 13.6577 44.4911 13.8878C44.7809 14.1179 45.1502 14.233 45.5991 14.233ZM51.1058 11.0625V15H50.1001V8.45455H51.0717V9.47727H51.157C51.3104 9.14489 51.5433 8.87784 51.8558 8.67614C52.1683 8.47159 52.5717 8.36932 53.0661 8.36932C53.5092 8.36932 53.897 8.46023 54.2294 8.64205C54.5618 8.82102 54.8203 9.09375 55.005 9.46023C55.1896 9.82386 55.282 10.2841 55.282 10.8409V15H54.2763V10.9091C54.2763 10.3949 54.1428 9.99432 53.8757 9.70739C53.6087 9.41761 53.2422 9.27273 52.7763 9.27273C52.4553 9.27273 52.1683 9.34233 51.9155 9.48153C51.6655 9.62074 51.468 9.82386 51.3232 10.0909C51.1783 10.358 51.1058 10.6818 51.1058 11.0625ZM60.631 15V6.27273H63.5799C64.2617 6.27273 64.8214 6.3892 65.2589 6.62216C65.6964 6.85227 66.0202 7.16903 66.2305 7.57244C66.4407 7.97585 66.5458 8.43466 66.5458 8.94886C66.5458 9.46307 66.4407 9.91903 66.2305 10.3168C66.0202 10.7145 65.6978 11.027 65.2631 11.2543C64.8285 11.4787 64.2731 11.5909 63.5969 11.5909H61.2106V10.6364H63.5629C64.0288 10.6364 64.4038 10.5682 64.6879 10.4318C64.9748 10.2955 65.1822 10.1023 65.31 9.85227C65.4407 9.59943 65.506 9.2983 65.506 8.94886C65.506 8.59943 65.4407 8.29403 65.31 8.03267C65.1793 7.77131 64.9705 7.5696 64.6836 7.42756C64.3967 7.28267 64.0174 7.21023 63.5458 7.21023H61.6879V15H60.631ZM64.739 11.0795L66.8867 15H65.6594L63.5458 11.0795H64.739ZM68.3068 15V6.27273H71.2557C71.9403 6.27273 72.5 6.39631 72.9347 6.64347C73.3722 6.88778 73.696 7.21875 73.9062 7.63636C74.1165 8.05398 74.2216 8.51989 74.2216 9.03409C74.2216 9.5483 74.1165 10.0156 73.9062 10.4361C73.6989 10.8565 73.3778 11.1918 72.9432 11.4418C72.5085 11.6889 71.9517 11.8125 71.2727 11.8125H69.1591V10.875H71.2386C71.7074 10.875 72.0838 10.794 72.3679 10.6321C72.652 10.4702 72.858 10.2514 72.9858 9.97585C73.1165 9.69744 73.1818 9.38352 73.1818 9.03409C73.1818 8.68466 73.1165 8.37216 72.9858 8.09659C72.858 7.82102 72.6506 7.60511 72.3636 7.44886C72.0767 7.28977 71.696 7.21023 71.2216 7.21023H69.3636V15H68.3068ZM81.8899 9C81.7962 8.71307 81.6726 8.45597 81.5192 8.22869C81.3686 7.99858 81.1882 7.80256 80.978 7.64062C80.7706 7.47869 80.5348 7.35511 80.2706 7.26989C80.0064 7.18466 79.7166 7.14205 79.4013 7.14205C78.8842 7.14205 78.4141 7.27557 77.9908 7.54261C77.5675 7.80966 77.2308 8.20312 76.9808 8.72301C76.7308 9.2429 76.6058 9.88068 76.6058 10.6364C76.6058 11.392 76.7322 12.0298 76.9851 12.5497C77.2379 13.0696 77.5803 13.4631 78.0121 13.7301C78.4439 13.9972 78.9297 14.1307 79.4695 14.1307C79.9695 14.1307 80.4098 14.0241 80.7905 13.8111C81.174 13.5952 81.4723 13.2912 81.6854 12.8991C81.9013 12.5043 82.0092 12.0398 82.0092 11.5057L82.3331 11.5739H79.7081V10.6364H83.032V11.5739C83.032 12.2926 82.8786 12.9176 82.5717 13.4489C82.2678 13.9801 81.8473 14.392 81.3104 14.6847C80.7763 14.9744 80.1626 15.1193 79.4695 15.1193C78.6967 15.1193 78.0178 14.9375 77.4325 14.5739C76.8501 14.2102 76.3956 13.6932 76.0689 13.0227C75.745 12.3523 75.5831 11.5568 75.5831 10.6364C75.5831 9.94602 75.6754 9.32528 75.8601 8.77415C76.0476 8.22017 76.3118 7.74858 76.6527 7.35938C76.9936 6.97017 77.397 6.67188 77.8629 6.46449C78.3288 6.2571 78.8416 6.15341 79.4013 6.15341C79.8615 6.15341 80.2905 6.22301 80.6882 6.36222C81.0888 6.49858 81.4453 6.69318 81.7578 6.94602C82.0732 7.19602 82.3359 7.49574 82.5462 7.84517C82.7564 8.19176 82.9013 8.5767 82.9808 9H81.8899Z" fill="#0086C9"/>
</svg>
