<svg width="78" height="40" viewBox="0 0 78 40" fill="none" xmlns="http://www.w3.org/2000/svg">
<path fill-rule="evenodd" clip-rule="evenodd" d="M72.9044 19.1468C72.4729 18.6391 71.8364 18.318 71.1263 18.318C70.387 18.318 69.7273 18.6661 69.2958 19.2105V19.0658C69.2958 18.7114 69.0149 18.4248 68.6684 18.4248H67.4653V25.7942H69.0344H72.3292V25.795H77.0361V20.721C77.0361 19.3938 75.9824 18.318 74.6827 18.318C73.9725 18.318 73.336 18.6391 72.9044 19.1468ZM73.1662 20.8276C73.1662 20.2673 73.6345 19.8131 74.2121 19.8131C74.7898 19.8131 75.2581 20.2673 75.2581 20.8276V25.794H73.1662V20.8276ZM69.2955 20.8276C69.2955 20.2673 69.7638 19.8131 70.3415 19.8131C70.9192 19.8131 71.3875 20.2673 71.3875 20.8276V25.794H69.2955V20.8276Z" fill="#5D50A0"/>
<path fill-rule="evenodd" clip-rule="evenodd" d="M58.418 22.0027C58.418 24.1262 60.1038 25.8476 62.1835 25.8476C64.2631 25.8476 65.949 24.1262 65.949 22.0027C65.949 19.8792 64.2631 18.1578 62.1835 18.1578C60.1038 18.1578 58.418 19.8792 58.418 22.0027ZM60.1441 22.0029C60.1441 20.8527 61.0572 19.9203 62.1837 19.9203C63.3102 19.9203 64.2233 20.8527 64.2233 22.0029C64.2233 23.1531 63.3102 24.0855 62.1837 24.0855C61.0572 24.0855 60.1441 23.1531 60.1441 22.0029Z" fill="#5D50A0"/>
<path fill-rule="evenodd" clip-rule="evenodd" d="M51.3049 22.0027C51.3049 24.1262 52.9908 25.8476 55.0705 25.8476C56.0763 25.8476 56.9971 25.4393 57.6725 24.7832C57.6752 24.7805 57.1654 23.4975 56.7039 23.4975C56.2423 23.4975 56.2228 24.0046 55.0705 24.0183C53.9945 24.0046 53.0741 23.026 53.0741 22.0027C53.0741 21.087 53.7925 19.9932 55.0705 19.9932C56.146 19.9932 56.233 20.5104 56.7039 20.5104C57.1747 20.5104 57.6766 19.2274 57.6766 19.2274C56.9941 18.5623 56.0786 18.1578 55.0705 18.1578C52.9908 18.1578 51.3049 19.8792 51.3049 22.0027Z" fill="#5D50A0"/>
<mask id="mask0" mask-type="alpha" maskUnits="userSpaceOnUse" x="51" y="18" width="7" height="8">
<path fill-rule="evenodd" clip-rule="evenodd" d="M51.3049 22.0027C51.3049 24.1262 52.9908 25.8476 55.0705 25.8476C56.0763 25.8476 56.9971 25.4393 57.6725 24.7832C57.6752 24.7805 57.1654 23.4975 56.7039 23.4975C56.2423 23.4975 56.2228 24.0046 55.0705 24.0183C53.9945 24.0046 53.0741 23.026 53.0741 22.0027C53.0741 21.087 53.7925 19.9932 55.0705 19.9932C56.146 19.9932 56.233 20.5104 56.7039 20.5104C57.1747 20.5104 57.6766 19.2274 57.6766 19.2274C56.9941 18.5623 56.0786 18.1578 55.0705 18.1578C52.9908 18.1578 51.3049 19.8792 51.3049 22.0027Z" fill="white"/>
</mask>
<g mask="url(#mask0)">
</g>
<path fill-rule="evenodd" clip-rule="evenodd" d="M46.9648 24.833C46.9648 25.3934 47.4097 25.8476 47.9585 25.8476C48.5074 25.8476 48.9522 25.3934 48.9522 24.833C48.9522 24.2726 48.5074 23.8184 47.9585 23.8184C47.4097 23.8184 46.9648 24.2726 46.9648 24.833Z" fill="#5D50A0"/>
<path fill-rule="evenodd" clip-rule="evenodd" d="M33.1928 14.5794C33.289 14.4321 33.5077 14.3126 33.6805 14.3126H35.5635L31.798 20.08L35.5635 25.8473H33.6805C33.5077 25.8473 33.289 25.7278 33.1928 25.5805L30.6997 21.7621L28.2067 25.5805C28.1104 25.7278 27.8917 25.8473 27.7189 25.8473H25.8359L29.6014 20.08L25.8359 14.3126H27.7189C27.8917 14.3126 28.1104 14.4321 28.2067 14.5794L30.6997 18.3978L33.1928 14.5794Z" fill="#5D50A0"/>
<path fill-rule="evenodd" clip-rule="evenodd" d="M37.4988 25.8473V14.3126H38.2895H39.4339H41.3183C43.3987 14.3126 45.0853 16.0341 45.0853 18.1575C45.0853 20.2809 43.3987 22.0024 41.3183 22.0024H39.4339V25.5267C39.4339 25.7038 39.2931 25.8473 39.1197 25.8473H37.4988ZM39.4339 19.9729H41.2399C42.2914 19.9729 43.1438 19.1122 43.1438 18.0505C43.1438 16.9887 42.2914 16.128 41.2399 16.128H39.4339V19.9729Z" fill="#5D50A0"/>
<path fill-rule="evenodd" clip-rule="evenodd" d="M29.4829 5.32474C25.8911 6.65961 23.0878 9.22732 21.3645 12.3895H24.2846C25.7364 10.3193 27.794 8.65921 30.3143 7.72261C36.9641 5.25126 44.3169 8.75216 46.7372 15.5421C47.5905 17.936 47.7168 20.419 47.2313 22.7391C47.4512 22.6614 47.6873 22.6191 47.9332 22.6191C48.6062 22.6191 49.2068 22.9357 49.6 23.4311C50.2309 20.6063 50.099 17.5694 49.0564 14.6443C46.7994 8.31269 40.9423 4.38071 34.7048 4.38013C32.9702 4.37994 31.2074 4.68385 29.4829 5.32474Z" fill="url(#paint0_linear)"/>
<path fill-rule="evenodd" clip-rule="evenodd" d="M38.9987 32.2988C33.503 34.3412 27.5271 32.3046 24.2521 27.7034H21.3645C24.9823 34.1853 32.7514 37.2557 39.8487 34.6181C43.6694 33.1981 46.5979 30.3832 48.2833 26.9417C48.1442 26.9706 48.0002 26.9858 47.8527 26.9858C47.0833 26.9858 46.4083 26.5719 46.0301 25.9502C44.6091 28.7959 42.1702 31.1202 38.9987 32.2988Z" fill="url(#paint1_linear)"/>
<path fill-rule="evenodd" clip-rule="evenodd" d="M3.57145 14.3131L3.57048 14.3166L3.56804 14.3144L0.0134277 17.4094L0.678541 18.3012C0.888574 18.5828 1.27402 18.6264 1.53878 18.399L3.03343 17.1154V24.3526H0.208982V25.8478H7.16475V24.3526H4.96841V14.3131H3.57145Z" fill="#5D50A0"/>
<path fill-rule="evenodd" clip-rule="evenodd" d="M20.3385 14.3131L20.3376 14.3166L20.3351 14.3144L16.7805 17.4094L17.4456 18.3012C17.6557 18.5828 18.0411 18.6264 18.3059 18.399L19.8005 17.1154V24.3526H16.9761V25.8478H23.9318V24.3526H21.7355V14.3131H20.3385Z" fill="#5D50A0"/>
<path fill-rule="evenodd" clip-rule="evenodd" d="M9.03585 15.4152C8.27645 16.3501 7.89673 17.8808 7.89673 20.0075C7.89673 22.1752 8.24214 23.6816 8.93303 24.5266C9.62393 25.3715 10.5336 25.794 11.6622 25.794C12.7856 25.794 13.661 25.4088 14.2886 24.6383C15.0481 23.7034 15.4278 22.1675 15.4278 20.0306C15.4278 17.8885 15.0507 16.3552 14.2966 15.4306C13.6637 14.6498 12.7856 14.2594 11.6622 14.2594C10.5389 14.2594 9.66344 14.6447 9.03585 15.4152ZM10.8301 23.7521C10.5879 23.5877 10.3872 23.2577 10.2278 22.762C10.0684 22.2663 9.98873 21.3558 9.98873 20.0305C9.98873 18.7052 10.0776 17.7626 10.2554 17.2027C10.3902 16.7712 10.5803 16.472 10.8255 16.305C11.0707 16.1381 11.3497 16.0546 11.6622 16.0546C11.9749 16.0546 12.2523 16.1381 12.4945 16.305C12.7366 16.472 12.9374 16.8033 13.0967 17.299C13.2561 17.7947 13.3358 18.7052 13.3358 20.0305C13.3358 21.3558 13.2469 22.2958 13.0692 22.8506C12.9343 23.2821 12.7443 23.5813 12.4991 23.7482C12.2539 23.9152 11.9749 23.9987 11.6622 23.9987C11.3497 23.9987 11.0722 23.9165 10.8301 23.7521Z" fill="#5D50A0"/>
<mask id="mask1" mask-type="alpha" maskUnits="userSpaceOnUse" x="7" y="14" width="9" height="12">
<path fill-rule="evenodd" clip-rule="evenodd" d="M9.03585 15.4152C8.27645 16.3501 7.89673 17.8808 7.89673 20.0075C7.89673 22.1752 8.24214 23.6816 8.93303 24.5266C9.62393 25.3715 10.5336 25.794 11.6622 25.794C12.7856 25.794 13.661 25.4088 14.2886 24.6383C15.0481 23.7034 15.4278 22.1675 15.4278 20.0306C15.4278 17.8885 15.0507 16.3552 14.2966 15.4306C13.6637 14.6498 12.7856 14.2594 11.6622 14.2594C10.5389 14.2594 9.66344 14.6447 9.03585 15.4152ZM10.8301 23.7521C10.5879 23.5877 10.3872 23.2577 10.2278 22.762C10.0684 22.2663 9.98873 21.3558 9.98873 20.0305C9.98873 18.7052 10.0776 17.7626 10.2554 17.2027C10.3902 16.7712 10.5803 16.472 10.8255 16.305C11.0707 16.1381 11.3497 16.0546 11.6622 16.0546C11.9749 16.0546 12.2523 16.1381 12.4945 16.305C12.7366 16.472 12.9374 16.8033 13.0967 17.299C13.2561 17.7947 13.3358 18.7052 13.3358 20.0305C13.3358 21.3558 13.2469 22.2958 13.0692 22.8506C12.9343 23.2821 12.7443 23.5813 12.4991 23.7482C12.2539 23.9152 11.9749 23.9987 11.6622 23.9987C11.3497 23.9987 11.0722 23.9165 10.8301 23.7521Z" fill="white"/>
</mask>
<g mask="url(#mask1)">
</g>
<defs>
<linearGradient id="paint0_linear" x1="28.7025" y1="19.5583" x2="36.6571" y2="9.34288" gradientUnits="userSpaceOnUse">
<stop stop-color="#A887FF"/>
<stop offset="1" stop-color="#74FF6A"/>
</linearGradient>
<linearGradient id="paint1_linear" x1="30.4013" y1="34.539" x2="40.1547" y2="22.1208" gradientUnits="userSpaceOnUse">
<stop stop-color="#9276DC"/>
<stop offset="1" stop-color="#654DA9"/>
</linearGradient>
</defs>
</svg>
