<svg width="152" height="26" viewBox="0 0 152 26" fill="none" xmlns="http://www.w3.org/2000/svg">
<g clip-path="url(#clip0_30_1915)">
<path d="M6.09226 6.2688C7.09201 6.2688 7.97461 6.47433 8.74005 6.8854C9.52111 7.28066 10.1303 7.77868 10.5677 8.37947V6.48224H13.2624V19.7629C13.2624 20.9645 13.0124 22.0316 12.5126 22.9645C12.0127 23.9131 11.2863 24.6561 10.3334 25.1937C9.39614 25.7312 8.27141 26 6.95923 26C5.20966 26 3.75689 25.5811 2.60093 24.7431C1.89547 24.2414 1.37618 23.6278 1.04307 22.9023C0.689485 22.1322 1.37304 21.3755 2.2204 21.3755C2.84942 21.3755 3.37444 21.8184 3.76711 22.3098C3.97995 22.5762 4.24731 22.8102 4.56919 23.0119C5.2409 23.4388 6.03758 23.6522 6.95923 23.6522C8.03709 23.6522 8.90407 23.3202 9.56016 22.6562C10.2319 21.9921 10.5677 21.0277 10.5677 19.7629V17.5811C10.1147 18.1977 9.49767 18.7194 8.71662 19.1463C7.95118 19.5573 7.07639 19.7629 6.09226 19.7629C4.96753 19.7629 3.93654 19.4783 2.99927 18.9091C2.07762 18.3241 1.34342 17.5178 0.79668 16.4901C0.26556 15.4467 0 14.2688 0 12.9565C0 11.6443 0.26556 10.4822 0.79668 9.47038C1.34342 8.45852 2.07762 7.67591 2.99927 7.12255C3.93654 6.55338 4.96753 6.2688 6.09226 6.2688ZM10.5677 13.004C10.5677 12.1028 10.3803 11.3202 10.0054 10.6561C9.64607 9.99212 9.16963 9.48619 8.57603 9.13836C7.98242 8.79054 7.34195 8.61662 6.65462 8.61662C5.96729 8.61662 5.32682 8.79054 4.73322 9.13836C4.13961 9.47038 3.65535 9.9684 3.28045 10.6324C2.92116 11.2807 2.74152 12.0554 2.74152 12.9565C2.74152 13.8577 2.92116 14.6482 3.28045 15.3281C3.65535 16.0079 4.13961 16.5297 4.73322 16.8933C5.34244 17.2411 5.98291 17.415 6.65462 17.415C7.34195 17.415 7.98242 17.2411 8.57603 16.8933C9.16963 16.5455 9.64607 16.0396 10.0054 15.3755C10.3803 14.6957 10.5677 13.9052 10.5677 13.004Z" fill="#101828"/>
<path d="M15.8805 12.9565C15.8805 11.6443 16.1461 10.4822 16.6772 9.47038C17.2239 8.45852 17.9581 7.67591 18.8798 7.12255C19.817 6.55338 20.848 6.2688 21.9728 6.2688C22.9881 6.2688 23.8707 6.47433 24.6206 6.8854C25.386 7.28066 25.9952 7.77868 26.4482 8.37947V6.48224H29.1429V19.5494H26.4482V17.6048C25.9952 18.2214 25.3782 18.7352 24.5971 19.1463C23.8161 19.5573 22.9257 19.7629 21.9259 19.7629C20.8168 19.7629 19.8014 19.4783 18.8798 18.9091C17.9581 18.3241 17.2239 17.5178 16.6772 16.4901C16.1461 15.4467 15.8805 14.2688 15.8805 12.9565ZM26.4482 13.004C26.4482 12.1028 26.2608 11.3202 25.8859 10.6561C25.5266 9.99212 25.0501 9.48619 24.4565 9.13836C23.8629 8.79054 23.2225 8.61662 22.5351 8.61662C21.8478 8.61662 21.2073 8.79054 20.6137 9.13836C20.0201 9.47038 19.5359 9.9684 19.161 10.6324C18.8017 11.2807 18.622 12.0554 18.622 12.9565C18.622 13.8577 18.8017 14.6482 19.161 15.3281C19.5359 16.0079 20.0201 16.5297 20.6137 16.8933C21.223 17.2411 21.8634 17.415 22.5351 17.415C23.2225 17.415 23.8629 17.2411 24.4565 16.8933C25.0501 16.5455 25.5266 16.0396 25.8859 15.3755C26.2608 14.6957 26.4482 13.9052 26.4482 13.004Z" fill="#101828"/>
<path d="M48.2804 6.2688C49.2958 6.2688 50.2018 6.48224 50.9985 6.90911C51.8108 7.33599 52.4435 7.9684 52.8965 8.80635C53.3651 9.64429 53.5994 10.6562 53.5994 11.8419V19.5494H50.9516V12.2451C50.9516 11.0751 50.6626 10.1818 50.0847 9.56524C49.5067 8.93283 48.7178 8.61662 47.7181 8.61662C46.7183 8.61662 45.9216 8.93283 45.328 9.56524C44.75 10.1818 44.461 11.0751 44.461 12.2451V19.5494H41.8132V12.2451C41.8132 11.0751 41.5243 10.1818 40.9463 9.56524C40.3683 8.93283 39.5794 8.61662 38.5797 8.61662C37.5799 8.61662 36.7832 8.93283 36.1896 9.56524C35.6116 10.1818 35.3226 11.0751 35.3226 12.2451V19.5494H32.6514V6.48224H35.3226V7.97631C35.76 7.43876 36.3146 7.01979 36.9863 6.71939C37.658 6.419 38.3766 6.2688 39.142 6.2688C40.173 6.2688 41.0947 6.49014 41.907 6.93283C42.7193 7.37552 43.3441 8.01583 43.7815 8.85378C44.172 8.06326 44.7813 7.43876 45.6092 6.98026C46.4371 6.50595 47.3275 6.2688 48.2804 6.2688Z" fill="#101828"/>
<path d="M68.8315 12.6957C68.8315 13.1858 68.8003 13.6285 68.7378 14.0237H58.873C58.9511 15.0672 59.3339 15.9052 60.0212 16.5376C60.7085 17.17 61.5521 17.4862 62.5518 17.4862C63.989 17.4862 65.0043 16.8775 65.5979 15.6601H68.48C68.0895 16.8617 67.3788 17.8498 66.3478 18.6245C65.3324 19.3834 64.0671 19.7629 62.5518 19.7629C61.3177 19.7629 60.2086 19.4862 59.2245 18.9328C58.256 18.3637 57.4906 17.5731 56.9282 16.5613C56.3815 15.5336 56.1081 14.3478 56.1081 13.004C56.1081 11.6601 56.3736 10.4822 56.9048 9.47038C57.4515 8.44271 58.2091 7.6522 59.1776 7.09884C60.1618 6.54548 61.2865 6.2688 62.5518 6.2688C63.7703 6.2688 64.8559 6.53757 65.8088 7.07512C66.7617 7.61267 67.5037 8.37157 68.0349 9.3518C68.566 10.3162 68.8315 11.4309 68.8315 12.6957ZM66.0432 11.8419C66.0275 10.8459 65.6761 10.0475 64.9887 9.44666C64.3014 8.84587 63.45 8.54548 62.4347 8.54548C61.513 8.54548 60.7241 8.84587 60.0681 9.44666C59.412 10.0316 59.0214 10.8301 58.8965 11.8419H66.0432Z" fill="#101828"/>
<path d="M76.4515 17.1304L81.7375 3.36795C81.9315 2.86295 82.4166 2.52964 82.9576 2.52964C83.884 2.52964 84.5163 3.4669 84.1694 4.32592L78.61 18.092C78.2543 18.9728 77.3996 19.5494 76.4497 19.5494C75.4783 19.5494 74.6089 18.9468 74.268 18.0372L70.6086 8.27287C70.2838 7.40637 70.9244 6.48221 71.8498 6.48221C72.416 6.48221 72.9196 6.84183 73.1035 7.37734L76.4515 17.1304Z" fill="#6941C6"/>
<path d="M96.7943 12.6957C96.7943 13.1858 96.7631 13.6285 96.7006 14.0237H86.8358C86.9139 15.0672 87.2967 15.9051 87.984 16.5375C88.6713 17.17 89.5149 17.4862 90.5146 17.4862C91.9518 17.4862 92.9671 16.8775 93.5608 15.6601H96.4428C96.0523 16.8617 95.3416 17.8498 94.3106 18.6245C93.2952 19.3834 92.0299 19.7628 90.5146 19.7628C89.2805 19.7628 88.1714 19.4862 87.1873 18.9328C86.2188 18.3636 85.4534 17.5731 84.891 16.5613C84.3442 15.5336 84.0709 14.3478 84.0709 13.004C84.0709 11.6601 84.3364 10.4822 84.8676 9.47036C85.4143 8.44269 86.1719 7.65217 87.1404 7.09881C88.1246 6.54545 89.2493 6.26877 90.5146 6.26877C91.7331 6.26877 92.8187 6.53755 93.7716 7.0751C94.7245 7.61265 95.4665 8.37154 95.9977 9.35178C96.5288 10.3162 96.7943 11.4308 96.7943 12.6957ZM94.006 11.8419C93.9903 10.8458 93.6389 10.0474 92.9515 9.44664C92.2642 8.84585 91.4128 8.54545 90.3975 8.54545C89.4758 8.54545 88.6869 8.84585 88.0309 9.44664C87.3748 10.0316 86.9842 10.83 86.8593 11.8419H94.006Z" fill="#6941C6"/>
<path d="M105.937 6.26877C106.952 6.26877 107.859 6.48221 108.655 6.90909C109.467 7.33597 110.1 7.96838 110.553 8.80632C111.006 9.64427 111.233 10.6561 111.233 11.8419V19.5494H108.585V12.2451C108.585 11.0751 108.296 10.1818 107.718 9.56522C107.14 8.93281 106.351 8.6166 105.351 8.6166C104.352 8.6166 103.555 8.93281 102.961 9.56522C102.383 10.1818 102.094 11.0751 102.094 12.2451V19.5494H99.4231V6.48221H102.094V7.97628C102.532 7.43874 103.086 7.01976 103.758 6.71937C104.445 6.41897 105.172 6.26877 105.937 6.26877Z" fill="#6941C6"/>
<path d="M113.75 12.9565C113.75 11.6443 114.015 10.4822 114.546 9.47036C115.093 8.4585 115.827 7.67589 116.749 7.12253C117.686 6.55336 118.725 6.26877 119.865 6.26877C120.709 6.26877 121.537 6.4585 122.349 6.83794C123.177 7.20158 123.833 7.6917 124.317 8.3083V2H127.012V19.5494H124.317V17.581C123.88 18.2134 123.271 18.7352 122.49 19.1462C121.724 19.5573 120.842 19.7628 119.842 19.7628C118.717 19.7628 117.686 19.4783 116.749 18.9091C115.827 18.3241 115.093 17.5178 114.546 16.4901C114.015 15.4466 113.75 14.2688 113.75 12.9565ZM124.317 13.004C124.317 12.1028 124.13 11.3202 123.755 10.6561C123.396 9.99209 122.919 9.48617 122.326 9.13834C121.732 8.79051 121.092 8.6166 120.404 8.6166C119.717 8.6166 119.076 8.79051 118.483 9.13834C117.889 9.47036 117.405 9.96838 117.03 10.6324C116.671 11.2806 116.491 12.0553 116.491 12.9565C116.491 13.8577 116.671 14.6482 117.03 15.3281C117.405 16.0079 117.889 16.5296 118.483 16.8933C119.092 17.2411 119.733 17.415 120.404 17.415C121.092 17.415 121.732 17.2411 122.326 16.8933C122.919 16.5455 123.396 16.0395 123.755 15.3755C124.13 14.6957 124.317 13.9051 124.317 13.004Z" fill="#6941C6"/>
<path d="M136.121 19.7628C134.902 19.7628 133.801 19.4862 132.817 18.9328C131.833 18.3636 131.059 17.5731 130.497 16.5613C129.935 15.5336 129.654 14.3478 129.654 13.004C129.654 11.6759 129.943 10.498 130.521 9.47036C131.098 8.44269 131.887 7.65217 132.887 7.09881C133.887 6.54545 135.004 6.26877 136.238 6.26877C137.472 6.26877 138.589 6.54545 139.589 7.09881C140.588 7.65217 141.377 8.44269 141.955 9.47036C142.533 10.498 142.822 11.6759 142.822 13.004C142.822 14.332 142.525 15.5099 141.932 16.5375C141.338 17.5652 140.526 18.3636 139.495 18.9328C138.479 19.4862 137.355 19.7628 136.121 19.7628ZM136.121 17.415C136.808 17.415 137.448 17.249 138.042 16.917C138.651 16.585 139.143 16.087 139.518 15.4229C139.893 14.7589 140.081 13.9526 140.081 13.004C140.081 12.0553 139.901 11.2569 139.542 10.6087C139.182 9.94466 138.706 9.44664 138.112 9.11462C137.519 8.78261 136.878 8.6166 136.191 8.6166C135.504 8.6166 134.863 8.78261 134.27 9.11462C133.692 9.44664 133.231 9.94466 132.887 10.6087C132.543 11.2569 132.372 12.0553 132.372 13.004C132.372 14.4111 132.723 15.502 133.426 16.2767C134.145 17.0356 135.043 17.415 136.121 17.415Z" fill="#6941C6"/>
<path d="M148.134 8.37945C148.525 7.71542 149.04 7.20158 149.681 6.83794C150.337 6.4585 151.11 6.26877 152 6.26877V9.06719H151.321C150.274 9.06719 149.477 9.33597 148.931 9.87352C148.4 10.4111 148.134 11.3439 148.134 12.6719V19.5494H145.463V6.48221H148.134V8.37945Z" fill="#6941C6"/>
</g>
<defs>
<clipPath id="clip0_30_1915">
<rect width="152" height="26" fill="white"/>
</clipPath>
</defs>
</svg>
