<svg width="232" height="18" viewBox="0 0 232 18" fill="none" xmlns="http://www.w3.org/2000/svg">
<path d="M6 3L8.03951 6.37501L12 7.20163L9.3 10.1141L9.7082 14L6 12.425L2.2918 14L2.7 10.1141L0 7.20163L3.96049 6.37501L6 3Z" fill="#FEC84B"/>
<path d="M2.2918 14L6 12.425V3L3.96049 6.37501L0 7.20163L2.7 10.1141L2.2918 14Z" fill="#FEC84B"/>
<path d="M22 3L24.0395 6.37501L28 7.20163L25.3 10.1141L25.7082 14L22 12.425L18.2918 14L18.7 10.1141L16 7.20163L19.9605 6.37501L22 3Z" fill="#FEC84B"/>
<path d="M18.2918 14L22 12.425V3L19.9605 6.37501L16 7.20163L18.7 10.1141L18.2918 14Z" fill="#FEC84B"/>
<path d="M38 3L40.0395 6.37501L44 7.20163L41.3 10.1141L41.7082 14L38 12.425L34.2918 14L34.7 10.1141L32 7.20163L35.9605 6.37501L38 3Z" fill="#FEC84B"/>
<path d="M34.2918 14L38 12.425V3L35.9605 6.37501L32 7.20163L34.7 10.1141L34.2918 14Z" fill="#FEC84B"/>
<path d="M54 3L56.0395 6.37501L60 7.20163L57.3 10.1141L57.7082 14L54 12.425L50.2918 14L50.7 10.1141L48 7.20163L51.9605 6.37501L54 3Z" fill="#EAECF0"/>
<path d="M50.2918 14L54 12.425V3L51.9605 6.37501L48 7.20163L50.7 10.1141L50.2918 14Z" fill="#FEC84B"/>
<path d="M70 3L72.0395 6.37501L76 7.20163L73.3 10.1141L73.7082 14L70 12.425L66.2918 14L66.7 10.1141L64 7.20163L67.9605 6.37501L70 3Z" fill="#EAECF0"/>
<path opacity="0.6" d="M84.9034 13V12.233L87.7841 9.07955C88.1222 8.71023 88.4006 8.3892 88.6193 8.11648C88.8381 7.84091 89 7.58239 89.1051 7.34091C89.2131 7.09659 89.267 6.84091 89.267 6.57386C89.267 6.26705 89.1932 6.00142 89.0455 5.77699C88.9006 5.55256 88.7017 5.37926 88.4489 5.2571C88.196 5.13494 87.9119 5.07386 87.5966 5.07386C87.2614 5.07386 86.9688 5.14347 86.7188 5.28267C86.4716 5.41903 86.2798 5.6108 86.1435 5.85795C86.0099 6.10511 85.9432 6.39489 85.9432 6.72727H84.9375C84.9375 6.21591 85.0554 5.76705 85.2912 5.38068C85.527 4.99432 85.848 4.69318 86.2543 4.47727C86.6634 4.26136 87.1222 4.15341 87.6307 4.15341C88.142 4.15341 88.5952 4.26136 88.9901 4.47727C89.3849 4.69318 89.6946 4.98437 89.919 5.35085C90.1435 5.71733 90.2557 6.125 90.2557 6.57386C90.2557 6.89489 90.1974 7.20881 90.081 7.51562C89.9673 7.8196 89.7685 8.15909 89.4844 8.53409C89.2031 8.90625 88.8125 9.3608 88.3125 9.89773L86.3523 11.9943V12.0625H90.4091V13H84.9034ZM94.9474 4.15341C95.3054 4.15625 95.6634 4.22443 96.0213 4.35795C96.3793 4.49148 96.706 4.71307 97.0014 5.02273C97.2969 5.32955 97.5341 5.74858 97.7131 6.27983C97.892 6.81108 97.9815 7.47727 97.9815 8.27841C97.9815 9.05398 97.9077 9.7429 97.7599 10.3452C97.6151 10.9446 97.4048 11.4503 97.1293 11.8622C96.8565 12.2741 96.5241 12.5866 96.1321 12.7997C95.7429 13.0128 95.3026 13.1193 94.8111 13.1193C94.3224 13.1193 93.8864 13.0227 93.5028 12.8295C93.1222 12.6335 92.8097 12.3622 92.5653 12.0156C92.3239 11.6662 92.169 11.2614 92.1009 10.8011H93.1406C93.2344 11.2017 93.4205 11.5327 93.6989 11.794C93.9801 12.0526 94.3509 12.1818 94.8111 12.1818C95.4844 12.1818 96.0156 11.8878 96.4048 11.2997C96.7969 10.7116 96.9929 9.88068 96.9929 8.80682H96.9247C96.7656 9.04545 96.5767 9.25142 96.358 9.42472C96.1392 9.59801 95.8963 9.73153 95.6293 9.82528C95.3622 9.91903 95.0781 9.96591 94.777 9.96591C94.277 9.96591 93.8182 9.84233 93.4006 9.59517C92.9858 9.34517 92.6534 9.00284 92.4034 8.56818C92.1562 8.13068 92.0327 7.63068 92.0327 7.06818C92.0327 6.53409 92.152 6.04545 92.3906 5.60227C92.6321 5.15625 92.9702 4.80114 93.4048 4.53693C93.8423 4.27273 94.3565 4.14489 94.9474 4.15341ZM94.9474 5.09091C94.5895 5.09091 94.267 5.1804 93.9801 5.35938C93.696 5.53551 93.4702 5.77415 93.3026 6.07528C93.1378 6.37358 93.0554 6.70455 93.0554 7.06818C93.0554 7.43182 93.1349 7.76278 93.294 8.06108C93.456 8.35653 93.6761 8.59233 93.9545 8.76847C94.2358 8.94176 94.5554 9.02841 94.9134 9.02841C95.1832 9.02841 95.4347 8.97585 95.6676 8.87074C95.9006 8.76278 96.1037 8.61648 96.277 8.43182C96.4531 8.24432 96.5909 8.03267 96.6903 7.79688C96.7898 7.55824 96.8395 7.30966 96.8395 7.05114C96.8395 6.71023 96.7571 6.39062 96.5923 6.09233C96.4304 5.79403 96.206 5.55256 95.919 5.3679C95.6349 5.18324 95.3111 5.09091 94.9474 5.09091ZM102.436 4.15341C102.794 4.15625 103.152 4.22443 103.51 4.35795C103.868 4.49148 104.194 4.71307 104.49 5.02273C104.785 5.32955 105.022 5.74858 105.201 6.27983C105.38 6.81108 105.47 7.47727 105.47 8.27841C105.47 9.05398 105.396 9.7429 105.248 10.3452C105.103 10.9446 104.893 11.4503 104.618 11.8622C104.345 12.2741 104.012 12.5866 103.62 12.7997C103.231 13.0128 102.791 13.1193 102.299 13.1193C101.811 13.1193 101.375 13.0227 100.991 12.8295C100.61 12.6335 100.298 12.3622 100.054 12.0156C99.8121 11.6662 99.6573 11.2614 99.5891 10.8011H100.629C100.723 11.2017 100.909 11.5327 101.187 11.794C101.468 12.0526 101.839 12.1818 102.299 12.1818C102.973 12.1818 103.504 11.8878 103.893 11.2997C104.285 10.7116 104.481 9.88068 104.481 8.80682H104.413C104.254 9.04545 104.065 9.25142 103.846 9.42472C103.627 9.59801 103.385 9.73153 103.118 9.82528C102.85 9.91903 102.566 9.96591 102.265 9.96591C101.765 9.96591 101.306 9.84233 100.889 9.59517C100.474 9.34517 100.142 9.00284 99.8917 8.56818C99.6445 8.13068 99.521 7.63068 99.521 7.06818C99.521 6.53409 99.6403 6.04545 99.8789 5.60227C100.12 5.15625 100.458 4.80114 100.893 4.53693C101.331 4.27273 101.845 4.14489 102.436 4.15341ZM102.436 5.09091C102.078 5.09091 101.755 5.1804 101.468 5.35938C101.184 5.53551 100.958 5.77415 100.791 6.07528C100.626 6.37358 100.544 6.70455 100.544 7.06818C100.544 7.43182 100.623 7.76278 100.782 8.06108C100.944 8.35653 101.164 8.59233 101.443 8.76847C101.724 8.94176 102.044 9.02841 102.402 9.02841C102.672 9.02841 102.923 8.97585 103.156 8.87074C103.389 8.76278 103.592 8.61648 103.765 8.43182C103.941 8.24432 104.079 8.03267 104.179 7.79688C104.278 7.55824 104.328 7.30966 104.328 7.05114C104.328 6.71023 104.245 6.39062 104.081 6.09233C103.919 5.79403 103.694 5.55256 103.407 5.3679C103.123 5.18324 102.799 5.09091 102.436 5.09091Z" fill="#475467"/>
</svg>
