<svg width="232" height="18" viewBox="0 0 232 18" fill="none" xmlns="http://www.w3.org/2000/svg">
<path d="M6 3L8.03951 6.37501L12 7.20163L9.3 10.1141L9.7082 14L6 12.425L2.2918 14L2.7 10.1141L0 7.20163L3.96049 6.37501L6 3Z" fill="#FEC84B"/>
<path d="M2.2918 14L6 12.425V3L3.96049 6.37501L0 7.20163L2.7 10.1141L2.2918 14Z" fill="#FEC84B"/>
<path d="M22 3L24.0395 6.37501L28 7.20163L25.3 10.1141L25.7082 14L22 12.425L18.2918 14L18.7 10.1141L16 7.20163L19.9605 6.37501L22 3Z" fill="#FEC84B"/>
<path d="M18.2918 14L22 12.425V3L19.9605 6.37501L16 7.20163L18.7 10.1141L18.2918 14Z" fill="#FEC84B"/>
<path d="M38 3L40.0395 6.37501L44 7.20163L41.3 10.1141L41.7082 14L38 12.425L34.2918 14L34.7 10.1141L32 7.20163L35.9605 6.37501L38 3Z" fill="#FEC84B"/>
<path d="M34.2918 14L38 12.425V3L35.9605 6.37501L32 7.20163L34.7 10.1141L34.2918 14Z" fill="#FEC84B"/>
<path d="M54 3L56.0395 6.37501L60 7.20163L57.3 10.1141L57.7082 14L54 12.425L50.2918 14L50.7 10.1141L48 7.20163L51.9605 6.37501L54 3Z" fill="#FEC84B"/>
<path d="M50.2918 14L54 12.425V3L51.9605 6.37501L48 7.20163L50.7 10.1141L50.2918 14Z" fill="#FEC84B"/>
<path d="M70 3L72.0395 6.37501L76 7.20163L73.3 10.1141L73.7082 14L70 12.425L66.2918 14L66.7 10.1141L64 7.20163L67.9605 6.37501L70 3Z" fill="#EAECF0"/>
<path opacity="0.6" d="M84.9034 13V12.233L87.7841 9.07955C88.1222 8.71023 88.4006 8.3892 88.6193 8.11648C88.8381 7.84091 89 7.58239 89.1051 7.34091C89.2131 7.09659 89.267 6.84091 89.267 6.57386C89.267 6.26705 89.1932 6.00142 89.0455 5.77699C88.9006 5.55256 88.7017 5.37926 88.4489 5.2571C88.196 5.13494 87.9119 5.07386 87.5966 5.07386C87.2614 5.07386 86.9688 5.14347 86.7188 5.28267C86.4716 5.41903 86.2798 5.6108 86.1435 5.85795C86.0099 6.10511 85.9432 6.39489 85.9432 6.72727H84.9375C84.9375 6.21591 85.0554 5.76705 85.2912 5.38068C85.527 4.99432 85.848 4.69318 86.2543 4.47727C86.6634 4.26136 87.1222 4.15341 87.6307 4.15341C88.142 4.15341 88.5952 4.26136 88.9901 4.47727C89.3849 4.69318 89.6946 4.98437 89.919 5.35085C90.1435 5.71733 90.2557 6.125 90.2557 6.57386C90.2557 6.89489 90.1974 7.20881 90.081 7.51562C89.9673 7.8196 89.7685 8.15909 89.4844 8.53409C89.2031 8.90625 88.8125 9.3608 88.3125 9.89773L86.3523 11.9943V12.0625H90.4091V13H84.9034ZM93.6861 11.8068L93.6179 12.267C93.5696 12.5909 93.4957 12.9375 93.3963 13.3068C93.2997 13.6761 93.1989 14.0241 93.0938 14.3509C92.9886 14.6776 92.902 14.9375 92.8338 15.1307H92.0668C92.1037 14.9489 92.152 14.7088 92.2116 14.4105C92.2713 14.1122 92.331 13.7784 92.3906 13.4091C92.4531 13.0426 92.5043 12.6676 92.544 12.2841L92.5952 11.8068H93.6861ZM98.0582 13.1193C97.473 13.1193 96.956 13.0156 96.5071 12.8082C96.0611 12.598 95.7131 12.3097 95.4631 11.9432C95.2131 11.5739 95.0895 11.1534 95.0923 10.6818C95.0895 10.3125 95.1619 9.97159 95.3097 9.65909C95.4574 9.34375 95.6591 9.08097 95.9148 8.87074C96.1733 8.65767 96.4616 8.52273 96.7798 8.46591V8.41477C96.3622 8.30682 96.0298 8.07244 95.7827 7.71165C95.5355 7.34801 95.4134 6.93466 95.4162 6.47159C95.4134 6.02841 95.5256 5.6321 95.7528 5.28267C95.9801 4.93324 96.2926 4.65767 96.6903 4.45597C97.0909 4.25426 97.5469 4.15341 98.0582 4.15341C98.5639 4.15341 99.0156 4.25426 99.4134 4.45597C99.8111 4.65767 100.124 4.93324 100.351 5.28267C100.581 5.6321 100.697 6.02841 100.7 6.47159C100.697 6.93466 100.571 7.34801 100.321 7.71165C100.074 8.07244 99.7457 8.30682 99.3366 8.41477V8.46591C99.652 8.52273 99.9361 8.65767 100.189 8.87074C100.442 9.08097 100.643 9.34375 100.794 9.65909C100.945 9.97159 101.021 10.3125 101.024 10.6818C101.021 11.1534 100.893 11.5739 100.641 11.9432C100.391 12.3097 100.043 12.598 99.5966 12.8082C99.1534 13.0156 98.6406 13.1193 98.0582 13.1193ZM98.0582 12.1818C98.4531 12.1818 98.794 12.1179 99.081 11.9901C99.3679 11.8622 99.5895 11.6818 99.7457 11.4489C99.902 11.2159 99.9815 10.9432 99.9844 10.6307C99.9815 10.3011 99.8963 10.0099 99.7287 9.7571C99.5611 9.50426 99.3324 9.3054 99.0426 9.16051C98.7557 9.01562 98.4276 8.94318 98.0582 8.94318C97.6861 8.94318 97.3537 9.01562 97.0611 9.16051C96.7713 9.3054 96.5426 9.50426 96.375 9.7571C96.2102 10.0099 96.1293 10.3011 96.1321 10.6307C96.1293 10.9432 96.2045 11.2159 96.358 11.4489C96.5142 11.6818 96.7372 11.8622 97.027 11.9901C97.3168 12.1179 97.6605 12.1818 98.0582 12.1818ZM98.0582 8.03977C98.3707 8.03977 98.6477 7.97727 98.8892 7.85227C99.1335 7.72727 99.3253 7.55256 99.4645 7.32812C99.6037 7.10369 99.6747 6.84091 99.6776 6.53977C99.6747 6.24432 99.6051 5.98722 99.4688 5.76847C99.3324 5.54687 99.1435 5.37642 98.902 5.2571C98.6605 5.13494 98.3793 5.07386 98.0582 5.07386C97.7315 5.07386 97.446 5.13494 97.2017 5.2571C96.9574 5.37642 96.7685 5.54687 96.6349 5.76847C96.5014 5.98722 96.4361 6.24432 96.4389 6.53977C96.4361 6.84091 96.5028 7.10369 96.6392 7.32812C96.7784 7.55256 96.9702 7.72727 97.2145 7.85227C97.4588 7.97727 97.7401 8.03977 98.0582 8.03977ZM105.453 13.1193C104.868 13.1193 104.35 13.0156 103.902 12.8082C103.456 12.598 103.108 12.3097 102.858 11.9432C102.608 11.5739 102.484 11.1534 102.487 10.6818C102.484 10.3125 102.556 9.97159 102.704 9.65909C102.852 9.34375 103.054 9.08097 103.309 8.87074C103.568 8.65767 103.856 8.52273 104.174 8.46591V8.41477C103.757 8.30682 103.424 8.07244 103.177 7.71165C102.93 7.34801 102.808 6.93466 102.811 6.47159C102.808 6.02841 102.92 5.6321 103.147 5.28267C103.375 4.93324 103.687 4.65767 104.085 4.45597C104.485 4.25426 104.941 4.15341 105.453 4.15341C105.958 4.15341 106.41 4.25426 106.808 4.45597C107.206 4.65767 107.518 4.93324 107.745 5.28267C107.975 5.6321 108.092 6.02841 108.095 6.47159C108.092 6.93466 107.966 7.34801 107.716 7.71165C107.468 8.07244 107.14 8.30682 106.731 8.41477V8.46591C107.047 8.52273 107.331 8.65767 107.583 8.87074C107.836 9.08097 108.038 9.34375 108.189 9.65909C108.339 9.97159 108.416 10.3125 108.419 10.6818C108.416 11.1534 108.288 11.5739 108.035 11.9432C107.785 12.3097 107.437 12.598 106.991 12.8082C106.548 13.0156 106.035 13.1193 105.453 13.1193ZM105.453 12.1818C105.848 12.1818 106.189 12.1179 106.475 11.9901C106.762 11.8622 106.984 11.6818 107.14 11.4489C107.297 11.2159 107.376 10.9432 107.379 10.6307C107.376 10.3011 107.291 10.0099 107.123 9.7571C106.956 9.50426 106.727 9.3054 106.437 9.16051C106.15 9.01562 105.822 8.94318 105.453 8.94318C105.081 8.94318 104.748 9.01562 104.456 9.16051C104.166 9.3054 103.937 9.50426 103.77 9.7571C103.605 10.0099 103.524 10.3011 103.527 10.6307C103.524 10.9432 103.599 11.2159 103.752 11.4489C103.909 11.6818 104.132 11.8622 104.422 11.9901C104.711 12.1179 105.055 12.1818 105.453 12.1818ZM105.453 8.03977C105.765 8.03977 106.042 7.97727 106.284 7.85227C106.528 7.72727 106.72 7.55256 106.859 7.32812C106.998 7.10369 107.069 6.84091 107.072 6.53977C107.069 6.24432 107 5.98722 106.863 5.76847C106.727 5.54687 106.538 5.37642 106.297 5.2571C106.055 5.13494 105.774 5.07386 105.453 5.07386C105.126 5.07386 104.841 5.13494 104.596 5.2571C104.352 5.37642 104.163 5.54687 104.029 5.76847C103.896 5.98722 103.831 6.24432 103.833 6.53977C103.831 6.84091 103.897 7.10369 104.034 7.32812C104.173 7.55256 104.365 7.72727 104.609 7.85227C104.853 7.97727 105.135 8.03977 105.453 8.03977ZM112.847 13.1193C112.262 13.1193 111.745 13.0156 111.296 12.8082C110.85 12.598 110.502 12.3097 110.252 11.9432C110.002 11.5739 109.879 11.1534 109.881 10.6818C109.879 10.3125 109.951 9.97159 110.099 9.65909C110.246 9.34375 110.448 9.08097 110.704 8.87074C110.962 8.65767 111.251 8.52273 111.569 8.46591V8.41477C111.151 8.30682 110.819 8.07244 110.572 7.71165C110.325 7.34801 110.202 6.93466 110.205 6.47159C110.202 6.02841 110.315 5.6321 110.542 5.28267C110.769 4.93324 111.082 4.65767 111.479 4.45597C111.88 4.25426 112.336 4.15341 112.847 4.15341C113.353 4.15341 113.805 4.25426 114.202 4.45597C114.6 4.65767 114.913 4.93324 115.14 5.28267C115.37 5.6321 115.487 6.02841 115.489 6.47159C115.487 6.93466 115.36 7.34801 115.11 7.71165C114.863 8.07244 114.535 8.30682 114.126 8.41477V8.46591C114.441 8.52273 114.725 8.65767 114.978 8.87074C115.231 9.08097 115.433 9.34375 115.583 9.65909C115.734 9.97159 115.81 10.3125 115.813 10.6818C115.81 11.1534 115.683 11.5739 115.43 11.9432C115.18 12.3097 114.832 12.598 114.386 12.8082C113.942 13.0156 113.43 13.1193 112.847 13.1193ZM112.847 12.1818C113.242 12.1818 113.583 12.1179 113.87 11.9901C114.157 11.8622 114.379 11.6818 114.535 11.4489C114.691 11.2159 114.771 10.9432 114.773 10.6307C114.771 10.3011 114.685 10.0099 114.518 9.7571C114.35 9.50426 114.121 9.3054 113.832 9.16051C113.545 9.01562 113.217 8.94318 112.847 8.94318C112.475 8.94318 112.143 9.01562 111.85 9.16051C111.56 9.3054 111.332 9.50426 111.164 9.7571C110.999 10.0099 110.918 10.3011 110.921 10.6307C110.918 10.9432 110.994 11.2159 111.147 11.4489C111.303 11.6818 111.526 11.8622 111.816 11.9901C112.106 12.1179 112.45 12.1818 112.847 12.1818ZM112.847 8.03977C113.16 8.03977 113.437 7.97727 113.678 7.85227C113.923 7.72727 114.114 7.55256 114.254 7.32812C114.393 7.10369 114.464 6.84091 114.467 6.53977C114.464 6.24432 114.394 5.98722 114.258 5.76847C114.121 5.54687 113.933 5.37642 113.691 5.2571C113.45 5.13494 113.168 5.07386 112.847 5.07386C112.521 5.07386 112.235 5.13494 111.991 5.2571C111.746 5.37642 111.558 5.54687 111.424 5.76847C111.29 5.98722 111.225 6.24432 111.228 6.53977C111.225 6.84091 111.292 7.10369 111.428 7.32812C111.567 7.55256 111.759 7.72727 112.004 7.85227C112.248 7.97727 112.529 8.03977 112.847 8.03977Z" fill="#475467"/>
</svg>
