<svg width="232" height="18" viewBox="0 0 232 18" fill="none" xmlns="http://www.w3.org/2000/svg">
<path d="M6 3L8.03951 6.37501L12 7.20163L9.3 10.1141L9.7082 14L6 12.425L2.2918 14L2.7 10.1141L0 7.20163L3.96049 6.37501L6 3Z" fill="#FEC84B"/>
<path d="M2.2918 14L6 12.425V3L3.96049 6.37501L0 7.20163L2.7 10.1141L2.2918 14Z" fill="#FEC84B"/>
<path d="M22 3L24.0395 6.37501L28 7.20163L25.3 10.1141L25.7082 14L22 12.425L18.2918 14L18.7 10.1141L16 7.20163L19.9605 6.37501L22 3Z" fill="#FEC84B"/>
<path d="M18.2918 14L22 12.425V3L19.9605 6.37501L16 7.20163L18.7 10.1141L18.2918 14Z" fill="#FEC84B"/>
<path d="M38 3L40.0395 6.37501L44 7.20163L41.3 10.1141L41.7082 14L38 12.425L34.2918 14L34.7 10.1141L32 7.20163L35.9605 6.37501L38 3Z" fill="#FEC84B"/>
<path d="M34.2918 14L38 12.425V3L35.9605 6.37501L32 7.20163L34.7 10.1141L34.2918 14Z" fill="#FEC84B"/>
<path d="M54 3L56.0395 6.37501L60 7.20163L57.3 10.1141L57.7082 14L54 12.425L50.2918 14L50.7 10.1141L48 7.20163L51.9605 6.37501L54 3Z" fill="#FEC84B"/>
<path d="M50.2918 14L54 12.425V3L51.9605 6.37501L48 7.20163L50.7 10.1141L50.2918 14Z" fill="#FEC84B"/>
<path d="M70 3L72.0395 6.37501L76 7.20163L73.3 10.1141L73.7082 14L70 12.425L66.2918 14L66.7 10.1141L64 7.20163L67.9605 6.37501L70 3Z" fill="#EAECF0"/>
<path d="M66.2918 14L70 12.425V3L67.9605 6.37501L64 7.20163L66.7 10.1141L66.2918 14Z" fill="#FEC84B"/>
<path opacity="0.6" d="M87.6818 4.15341C88.0398 4.15625 88.3977 4.22443 88.7557 4.35795C89.1136 4.49148 89.4403 4.71307 89.7358 5.02273C90.0313 5.32955 90.2685 5.74858 90.4474 6.27983C90.6264 6.81108 90.7159 7.47727 90.7159 8.27841C90.7159 9.05398 90.642 9.7429 90.4943 10.3452C90.3494 10.9446 90.1392 11.4503 89.8636 11.8622C89.5909 12.2741 89.2585 12.5866 88.8665 12.7997C88.4773 13.0128 88.0369 13.1193 87.5455 13.1193C87.0568 13.1193 86.6207 13.0227 86.2372 12.8295C85.8565 12.6335 85.544 12.3622 85.2997 12.0156C85.0582 11.6662 84.9034 11.2614 84.8352 10.8011H85.875C85.9688 11.2017 86.1548 11.5327 86.4332 11.794C86.7145 12.0526 87.0852 12.1818 87.5455 12.1818C88.2188 12.1818 88.75 11.8878 89.1392 11.2997C89.5313 10.7116 89.7273 9.88068 89.7273 8.80682H89.6591C89.5 9.04545 89.3111 9.25142 89.0923 9.42472C88.8736 9.59801 88.6307 9.73153 88.3636 9.82528C88.0966 9.91903 87.8125 9.96591 87.5114 9.96591C87.0114 9.96591 86.5526 9.84233 86.1349 9.59517C85.7202 9.34517 85.3878 9.00284 85.1378 8.56818C84.8906 8.13068 84.767 7.63068 84.767 7.06818C84.767 6.53409 84.8864 6.04545 85.125 5.60227C85.3665 5.15625 85.7045 4.80114 86.1392 4.53693C86.5767 4.27273 87.0909 4.14489 87.6818 4.15341ZM87.6818 5.09091C87.3239 5.09091 87.0014 5.1804 86.7145 5.35938C86.4304 5.53551 86.2045 5.77415 86.0369 6.07528C85.8722 6.37358 85.7898 6.70455 85.7898 7.06818C85.7898 7.43182 85.8693 7.76278 86.0284 8.06108C86.1903 8.35653 86.4105 8.59233 86.6889 8.76847C86.9702 8.94176 87.2898 9.02841 87.6477 9.02841C87.9176 9.02841 88.169 8.97585 88.402 8.87074C88.6349 8.76278 88.8381 8.61648 89.0114 8.43182C89.1875 8.24432 89.3253 8.03267 89.4247 7.79688C89.5241 7.55824 89.5739 7.30966 89.5739 7.05114C89.5739 6.71023 89.4915 6.39062 89.3267 6.09233C89.1648 5.79403 88.9403 5.55256 88.6534 5.3679C88.3693 5.18324 88.0455 5.09091 87.6818 5.09091ZM93.604 11.8068L93.5359 12.267C93.4876 12.5909 93.4137 12.9375 93.3143 13.3068C93.2177 13.6761 93.1168 14.0241 93.0117 14.3509C92.9066 14.6776 92.82 14.9375 92.7518 15.1307H91.9847C92.0217 14.9489 92.07 14.7088 92.1296 14.4105C92.1893 14.1122 92.2489 13.7784 92.3086 13.4091C92.3711 13.0426 92.4222 12.6676 92.462 12.2841L92.5131 11.8068H93.604ZM97.4755 4.27273V13H96.4187V5.38068H96.3675L94.2369 6.79545V5.72159L96.4187 4.27273H97.4755ZM102.764 4.15341C103.122 4.15625 103.48 4.22443 103.838 4.35795C104.196 4.49148 104.522 4.71307 104.818 5.02273C105.113 5.32955 105.35 5.74858 105.529 6.27983C105.708 6.81108 105.798 7.47727 105.798 8.27841C105.798 9.05398 105.724 9.7429 105.576 10.3452C105.431 10.9446 105.221 11.4503 104.946 11.8622C104.673 12.2741 104.341 12.5866 103.949 12.7997C103.559 13.0128 103.119 13.1193 102.627 13.1193C102.139 13.1193 101.703 13.0227 101.319 12.8295C100.939 12.6335 100.626 12.3622 100.382 12.0156C100.14 11.6662 99.9854 11.2614 99.9173 10.8011H100.957C101.051 11.2017 101.237 11.5327 101.515 11.794C101.797 12.0526 102.167 12.1818 102.627 12.1818C103.301 12.1818 103.832 11.8878 104.221 11.2997C104.613 10.7116 104.809 9.88068 104.809 8.80682H104.741C104.582 9.04545 104.393 9.25142 104.174 9.42472C103.956 9.59801 103.713 9.73153 103.446 9.82528C103.179 9.91903 102.895 9.96591 102.593 9.96591C102.093 9.96591 101.635 9.84233 101.217 9.59517C100.802 9.34517 100.47 9.00284 100.22 8.56818C99.9727 8.13068 99.8491 7.63068 99.8491 7.06818C99.8491 6.53409 99.9684 6.04545 100.207 5.60227C100.449 5.15625 100.787 4.80114 101.221 4.53693C101.659 4.27273 102.173 4.14489 102.764 4.15341ZM102.764 5.09091C102.406 5.09091 102.083 5.1804 101.797 5.35938C101.512 5.53551 101.287 5.77415 101.119 6.07528C100.954 6.37358 100.872 6.70455 100.872 7.06818C100.872 7.43182 100.951 7.76278 101.11 8.06108C101.272 8.35653 101.493 8.59233 101.771 8.76847C102.052 8.94176 102.372 9.02841 102.73 9.02841C103 9.02841 103.251 8.97585 103.484 8.87074C103.717 8.76278 103.92 8.61648 104.093 8.43182C104.27 8.24432 104.407 8.03267 104.507 7.79688C104.606 7.55824 104.656 7.30966 104.656 7.05114C104.656 6.71023 104.574 6.39062 104.409 6.09233C104.247 5.79403 104.022 5.55256 103.735 5.3679C103.451 5.18324 103.127 5.09091 102.764 5.09091ZM110.252 4.15341C110.61 4.15625 110.968 4.22443 111.326 4.35795C111.684 4.49148 112.011 4.71307 112.306 5.02273C112.602 5.32955 112.839 5.74858 113.018 6.27983C113.197 6.81108 113.286 7.47727 113.286 8.27841C113.286 9.05398 113.212 9.7429 113.065 10.3452C112.92 10.9446 112.71 11.4503 112.434 11.8622C112.161 12.2741 111.829 12.5866 111.437 12.7997C111.048 13.0128 110.607 13.1193 110.116 13.1193C109.627 13.1193 109.191 13.0227 108.808 12.8295C108.427 12.6335 108.114 12.3622 107.87 12.0156C107.629 11.6662 107.474 11.2614 107.406 10.8011H108.445C108.539 11.2017 108.725 11.5327 109.004 11.794C109.285 12.0526 109.656 12.1818 110.116 12.1818C110.789 12.1818 111.32 11.8878 111.71 11.2997C112.102 10.7116 112.298 9.88068 112.298 8.80682H112.229C112.07 9.04545 111.881 9.25142 111.663 9.42472C111.444 9.59801 111.201 9.73153 110.934 9.82528C110.667 9.91903 110.383 9.96591 110.082 9.96591C109.582 9.96591 109.123 9.84233 108.705 9.59517C108.29 9.34517 107.958 9.00284 107.708 8.56818C107.461 8.13068 107.337 7.63068 107.337 7.06818C107.337 6.53409 107.457 6.04545 107.695 5.60227C107.937 5.15625 108.275 4.80114 108.71 4.53693C109.147 4.27273 109.661 4.14489 110.252 4.15341ZM110.252 5.09091C109.894 5.09091 109.572 5.1804 109.285 5.35938C109.001 5.53551 108.775 5.77415 108.607 6.07528C108.442 6.37358 108.36 6.70455 108.36 7.06818C108.36 7.43182 108.44 7.76278 108.599 8.06108C108.761 8.35653 108.981 8.59233 109.259 8.76847C109.54 8.94176 109.86 9.02841 110.218 9.02841C110.488 9.02841 110.739 8.97585 110.972 8.87074C111.205 8.76278 111.408 8.61648 111.582 8.43182C111.758 8.24432 111.896 8.03267 111.995 7.79688C112.094 7.55824 112.144 7.30966 112.144 7.05114C112.144 6.71023 112.062 6.39062 111.897 6.09233C111.735 5.79403 111.511 5.55256 111.224 5.3679C110.94 5.18324 110.616 5.09091 110.252 5.09091Z" fill="#475467"/>
</svg>
