<svg width="232" height="18" viewBox="0 0 232 18" fill="none" xmlns="http://www.w3.org/2000/svg">
<path d="M6 3L8.03951 6.37501L12 7.20163L9.3 10.1141L9.7082 14L6 12.425L2.2918 14L2.7 10.1141L0 7.20163L3.96049 6.37501L6 3Z" fill="#FEC84B"/>
<path d="M2.2918 14L6 12.425V3L3.96049 6.37501L0 7.20163L2.7 10.1141L2.2918 14Z" fill="#FEC84B"/>
<path d="M22 3L24.0395 6.37501L28 7.20163L25.3 10.1141L25.7082 14L22 12.425L18.2918 14L18.7 10.1141L16 7.20163L19.9605 6.37501L22 3Z" fill="#FEC84B"/>
<path d="M18.2918 14L22 12.425V3L19.9605 6.37501L16 7.20163L18.7 10.1141L18.2918 14Z" fill="#FEC84B"/>
<path d="M38 3L40.0395 6.37501L44 7.20163L41.3 10.1141L41.7082 14L38 12.425L34.2918 14L34.7 10.1141L32 7.20163L35.9605 6.37501L38 3Z" fill="#FEC84B"/>
<path d="M34.2918 14L38 12.425V3L35.9605 6.37501L32 7.20163L34.7 10.1141L34.2918 14Z" fill="#FEC84B"/>
<path d="M54 3L56.0395 6.37501L60 7.20163L57.3 10.1141L57.7082 14L54 12.425L50.2918 14L50.7 10.1141L48 7.20163L51.9605 6.37501L54 3Z" fill="#FEC84B"/>
<path d="M50.2918 14L54 12.425V3L51.9605 6.37501L48 7.20163L50.7 10.1141L50.2918 14Z" fill="#FEC84B"/>
<path d="M70 3L72.0395 6.37501L76 7.20163L73.3 10.1141L73.7082 14L70 12.425L66.2918 14L66.7 10.1141L64 7.20163L67.9605 6.37501L70 3Z" fill="#FEC84B"/>
<path d="M66.2918 14L70 12.425V3L67.9605 6.37501L64 7.20163L66.7 10.1141L66.2918 14Z" fill="#FEC84B"/>
<path opacity="0.6" d="M84.9034 13V12.233L87.7841 9.07955C88.1222 8.71023 88.4006 8.3892 88.6193 8.11648C88.8381 7.84091 89 7.58239 89.1051 7.34091C89.2131 7.09659 89.267 6.84091 89.267 6.57386C89.267 6.26705 89.1932 6.00142 89.0455 5.77699C88.9006 5.55256 88.7017 5.37926 88.4489 5.2571C88.196 5.13494 87.9119 5.07386 87.5966 5.07386C87.2614 5.07386 86.9688 5.14347 86.7188 5.28267C86.4716 5.41903 86.2798 5.6108 86.1435 5.85795C86.0099 6.10511 85.9432 6.39489 85.9432 6.72727H84.9375C84.9375 6.21591 85.0554 5.76705 85.2912 5.38068C85.527 4.99432 85.848 4.69318 86.2543 4.47727C86.6634 4.26136 87.1222 4.15341 87.6307 4.15341C88.142 4.15341 88.5952 4.26136 88.9901 4.47727C89.3849 4.69318 89.6946 4.98437 89.919 5.35085C90.1435 5.71733 90.2557 6.125 90.2557 6.57386C90.2557 6.89489 90.1974 7.20881 90.081 7.51562C89.9673 7.8196 89.7685 8.15909 89.4844 8.53409C89.2031 8.90625 88.8125 9.3608 88.3125 9.89773L86.3523 11.9943V12.0625H90.4091V13H84.9034ZM94.9474 4.15341C95.3054 4.15625 95.6634 4.22443 96.0213 4.35795C96.3793 4.49148 96.706 4.71307 97.0014 5.02273C97.2969 5.32955 97.5341 5.74858 97.7131 6.27983C97.892 6.81108 97.9815 7.47727 97.9815 8.27841C97.9815 9.05398 97.9077 9.7429 97.7599 10.3452C97.6151 10.9446 97.4048 11.4503 97.1293 11.8622C96.8565 12.2741 96.5241 12.5866 96.1321 12.7997C95.7429 13.0128 95.3026 13.1193 94.8111 13.1193C94.3224 13.1193 93.8864 13.0227 93.5028 12.8295C93.1222 12.6335 92.8097 12.3622 92.5653 12.0156C92.3239 11.6662 92.169 11.2614 92.1009 10.8011H93.1406C93.2344 11.2017 93.4205 11.5327 93.6989 11.794C93.9801 12.0526 94.3509 12.1818 94.8111 12.1818C95.4844 12.1818 96.0156 11.8878 96.4048 11.2997C96.7969 10.7116 96.9929 9.88068 96.9929 8.80682H96.9247C96.7656 9.04545 96.5767 9.25142 96.358 9.42472C96.1392 9.59801 95.8963 9.73153 95.6293 9.82528C95.3622 9.91903 95.0781 9.96591 94.777 9.96591C94.277 9.96591 93.8182 9.84233 93.4006 9.59517C92.9858 9.34517 92.6534 9.00284 92.4034 8.56818C92.1562 8.13068 92.0327 7.63068 92.0327 7.06818C92.0327 6.53409 92.152 6.04545 92.3906 5.60227C92.6321 5.15625 92.9702 4.80114 93.4048 4.53693C93.8423 4.27273 94.3565 4.14489 94.9474 4.15341ZM94.9474 5.09091C94.5895 5.09091 94.267 5.1804 93.9801 5.35938C93.696 5.53551 93.4702 5.77415 93.3026 6.07528C93.1378 6.37358 93.0554 6.70455 93.0554 7.06818C93.0554 7.43182 93.1349 7.76278 93.294 8.06108C93.456 8.35653 93.6761 8.59233 93.9545 8.76847C94.2358 8.94176 94.5554 9.02841 94.9134 9.02841C95.1832 9.02841 95.4347 8.97585 95.6676 8.87074C95.9006 8.76278 96.1037 8.61648 96.277 8.43182C96.4531 8.24432 96.5909 8.03267 96.6903 7.79688C96.7898 7.55824 96.8395 7.30966 96.8395 7.05114C96.8395 6.71023 96.7571 6.39062 96.5923 6.09233C96.4304 5.79403 96.206 5.55256 95.919 5.3679C95.6349 5.18324 95.3111 5.09091 94.9474 5.09091ZM102.436 4.15341C102.794 4.15625 103.152 4.22443 103.51 4.35795C103.868 4.49148 104.194 4.71307 104.49 5.02273C104.785 5.32955 105.022 5.74858 105.201 6.27983C105.38 6.81108 105.47 7.47727 105.47 8.27841C105.47 9.05398 105.396 9.7429 105.248 10.3452C105.103 10.9446 104.893 11.4503 104.618 11.8622C104.345 12.2741 104.012 12.5866 103.62 12.7997C103.231 13.0128 102.791 13.1193 102.299 13.1193C101.811 13.1193 101.375 13.0227 100.991 12.8295C100.61 12.6335 100.298 12.3622 100.054 12.0156C99.8121 11.6662 99.6573 11.2614 99.5891 10.8011H100.629C100.723 11.2017 100.909 11.5327 101.187 11.794C101.468 12.0526 101.839 12.1818 102.299 12.1818C102.973 12.1818 103.504 11.8878 103.893 11.2997C104.285 10.7116 104.481 9.88068 104.481 8.80682H104.413C104.254 9.04545 104.065 9.25142 103.846 9.42472C103.627 9.59801 103.385 9.73153 103.118 9.82528C102.85 9.91903 102.566 9.96591 102.265 9.96591C101.765 9.96591 101.306 9.84233 100.889 9.59517C100.474 9.34517 100.142 9.00284 99.8917 8.56818C99.6445 8.13068 99.521 7.63068 99.521 7.06818C99.521 6.53409 99.6403 6.04545 99.8789 5.60227C100.12 5.15625 100.458 4.80114 100.893 4.53693C101.331 4.27273 101.845 4.14489 102.436 4.15341ZM102.436 5.09091C102.078 5.09091 101.755 5.1804 101.468 5.35938C101.184 5.53551 100.958 5.77415 100.791 6.07528C100.626 6.37358 100.544 6.70455 100.544 7.06818C100.544 7.43182 100.623 7.76278 100.782 8.06108C100.944 8.35653 101.164 8.59233 101.443 8.76847C101.724 8.94176 102.044 9.02841 102.402 9.02841C102.672 9.02841 102.923 8.97585 103.156 8.87074C103.389 8.76278 103.592 8.61648 103.765 8.43182C103.941 8.24432 104.079 8.03267 104.179 7.79688C104.278 7.55824 104.328 7.30966 104.328 7.05114C104.328 6.71023 104.245 6.39062 104.081 6.09233C103.919 5.79403 103.694 5.55256 103.407 5.3679C103.123 5.18324 102.799 5.09091 102.436 5.09091ZM108.358 11.8068L108.29 12.267C108.241 12.5909 108.168 12.9375 108.068 13.3068C107.972 13.6761 107.871 14.0241 107.766 14.3509C107.661 14.6776 107.574 14.9375 107.506 15.1307H106.739C106.776 14.9489 106.824 14.7088 106.884 14.4105C106.943 14.1122 107.003 13.7784 107.062 13.4091C107.125 13.0426 107.176 12.6676 107.216 12.2841L107.267 11.8068H108.358ZM112.73 13.1193C112.145 13.1193 111.628 13.0156 111.179 12.8082C110.733 12.598 110.385 12.3097 110.135 11.9432C109.885 11.5739 109.761 11.1534 109.764 10.6818C109.761 10.3125 109.834 9.97159 109.982 9.65909C110.129 9.34375 110.331 9.08097 110.587 8.87074C110.845 8.65767 111.134 8.52273 111.452 8.46591V8.41477C111.034 8.30682 110.702 8.07244 110.455 7.71165C110.207 7.34801 110.085 6.93466 110.088 6.47159C110.085 6.02841 110.197 5.6321 110.425 5.28267C110.652 4.93324 110.964 4.65767 111.362 4.45597C111.763 4.25426 112.219 4.15341 112.73 4.15341C113.236 4.15341 113.688 4.25426 114.085 4.45597C114.483 4.65767 114.795 4.93324 115.023 5.28267C115.253 5.6321 115.369 6.02841 115.372 6.47159C115.369 6.93466 115.243 7.34801 114.993 7.71165C114.746 8.07244 114.418 8.30682 114.009 8.41477V8.46591C114.324 8.52273 114.608 8.65767 114.861 8.87074C115.114 9.08097 115.315 9.34375 115.466 9.65909C115.616 9.97159 115.693 10.3125 115.696 10.6818C115.693 11.1534 115.565 11.5739 115.312 11.9432C115.062 12.3097 114.714 12.598 114.268 12.8082C113.825 13.0156 113.313 13.1193 112.73 13.1193ZM112.73 12.1818C113.125 12.1818 113.466 12.1179 113.753 11.9901C114.04 11.8622 114.261 11.6818 114.418 11.4489C114.574 11.2159 114.653 10.9432 114.656 10.6307C114.653 10.3011 114.568 10.0099 114.401 9.7571C114.233 9.50426 114.004 9.3054 113.714 9.16051C113.428 9.01562 113.099 8.94318 112.73 8.94318C112.358 8.94318 112.026 9.01562 111.733 9.16051C111.443 9.3054 111.214 9.50426 111.047 9.7571C110.882 10.0099 110.801 10.3011 110.804 10.6307C110.801 10.9432 110.876 11.2159 111.03 11.4489C111.186 11.6818 111.409 11.8622 111.699 11.9901C111.989 12.1179 112.332 12.1818 112.73 12.1818ZM112.73 8.03977C113.043 8.03977 113.32 7.97727 113.561 7.85227C113.805 7.72727 113.997 7.55256 114.136 7.32812C114.276 7.10369 114.347 6.84091 114.349 6.53977C114.347 6.24432 114.277 5.98722 114.141 5.76847C114.004 5.54687 113.815 5.37642 113.574 5.2571C113.332 5.13494 113.051 5.07386 112.73 5.07386C112.403 5.07386 112.118 5.13494 111.874 5.2571C111.629 5.37642 111.44 5.54687 111.307 5.76847C111.173 5.98722 111.108 6.24432 111.111 6.53977C111.108 6.84091 111.175 7.10369 111.311 7.32812C111.45 7.55256 111.642 7.72727 111.886 7.85227C112.131 7.97727 112.412 8.03977 112.73 8.03977ZM120.108 4.15341C120.466 4.15625 120.824 4.22443 121.181 4.35795C121.539 4.49148 121.866 4.71307 122.162 5.02273C122.457 5.32955 122.694 5.74858 122.873 6.27983C123.052 6.81108 123.142 7.47727 123.142 8.27841C123.142 9.05398 123.068 9.7429 122.92 10.3452C122.775 10.9446 122.565 11.4503 122.289 11.8622C122.017 12.2741 121.684 12.5866 121.292 12.7997C120.903 13.0128 120.463 13.1193 119.971 13.1193C119.483 13.1193 119.047 13.0227 118.663 12.8295C118.282 12.6335 117.97 12.3622 117.725 12.0156C117.484 11.6662 117.329 11.2614 117.261 10.8011H118.301C118.395 11.2017 118.581 11.5327 118.859 11.794C119.14 12.0526 119.511 12.1818 119.971 12.1818C120.645 12.1818 121.176 11.8878 121.565 11.2997C121.957 10.7116 122.153 9.88068 122.153 8.80682H122.085C121.926 9.04545 121.737 9.25142 121.518 9.42472C121.299 9.59801 121.056 9.73153 120.789 9.82528C120.522 9.91903 120.238 9.96591 119.937 9.96591C119.437 9.96591 118.978 9.84233 118.561 9.59517C118.146 9.34517 117.814 9.00284 117.564 8.56818C117.316 8.13068 117.193 7.63068 117.193 7.06818C117.193 6.53409 117.312 6.04545 117.551 5.60227C117.792 5.15625 118.13 4.80114 118.565 4.53693C119.002 4.27273 119.517 4.14489 120.108 4.15341ZM120.108 5.09091C119.75 5.09091 119.427 5.1804 119.14 5.35938C118.856 5.53551 118.63 5.77415 118.463 6.07528C118.298 6.37358 118.216 6.70455 118.216 7.06818C118.216 7.43182 118.295 7.76278 118.454 8.06108C118.616 8.35653 118.836 8.59233 119.115 8.76847C119.396 8.94176 119.716 9.02841 120.074 9.02841C120.343 9.02841 120.595 8.97585 120.828 8.87074C121.061 8.76278 121.264 8.61648 121.437 8.43182C121.613 8.24432 121.751 8.03267 121.85 7.79688C121.95 7.55824 122 7.30966 122 7.05114C122 6.71023 121.917 6.39062 121.752 6.09233C121.591 5.79403 121.366 5.55256 121.079 5.3679C120.795 5.18324 120.471 5.09091 120.108 5.09091ZM127.664 13.1193C127.022 13.1193 126.475 12.9446 126.023 12.5952C125.572 12.2429 125.227 11.733 124.988 11.0653C124.749 10.3949 124.63 9.58523 124.63 8.63636C124.63 7.69318 124.749 6.88778 124.988 6.22017C125.229 5.54972 125.576 5.03835 126.028 4.68608C126.482 4.33097 127.028 4.15341 127.664 4.15341C128.3 4.15341 128.844 4.33097 129.296 4.68608C129.751 5.03835 130.097 5.54972 130.336 6.22017C130.577 6.88778 130.698 7.69318 130.698 8.63636C130.698 9.58523 130.579 10.3949 130.34 11.0653C130.102 11.733 129.756 12.2429 129.305 12.5952C128.853 12.9446 128.306 13.1193 127.664 13.1193ZM127.664 12.1818C128.3 12.1818 128.795 11.875 129.147 11.2614C129.499 10.6477 129.675 9.77273 129.675 8.63636C129.675 7.88068 129.594 7.23722 129.433 6.70597C129.273 6.17472 129.043 5.76989 128.742 5.49148C128.444 5.21307 128.085 5.07386 127.664 5.07386C127.033 5.07386 126.54 5.38494 126.185 6.0071C125.83 6.62642 125.653 7.50284 125.653 8.63636C125.653 9.39205 125.732 10.0341 125.891 10.5625C126.05 11.0909 126.279 11.4929 126.577 11.7685C126.879 12.044 127.241 12.1818 127.664 12.1818Z" fill="#475467"/>
</svg>
