<svg width="232" height="18" viewBox="0 0 232 18" fill="none" xmlns="http://www.w3.org/2000/svg">
<path d="M6 3L8.03951 6.37501L12 7.20163L9.3 10.1141L9.7082 14L6 12.425L2.2918 14L2.7 10.1141L0 7.20163L3.96049 6.37501L6 3Z" fill="#EAECF0"/>
<path d="M22 3L24.0395 6.37501L28 7.20163L25.3 10.1141L25.7082 14L22 12.425L18.2918 14L18.7 10.1141L16 7.20163L19.9605 6.37501L22 3Z" fill="#EAECF0"/>
<path d="M38 3L40.0395 6.37501L44 7.20163L41.3 10.1141L41.7082 14L38 12.425L34.2918 14L34.7 10.1141L32 7.20163L35.9605 6.37501L38 3Z" fill="#EAECF0"/>
<path d="M54 3L56.0395 6.37501L60 7.20163L57.3 10.1141L57.7082 14L54 12.425L50.2918 14L50.7 10.1141L48 7.20163L51.9605 6.37501L54 3Z" fill="#EAECF0"/>
<path d="M70 3L72.0395 6.37501L76 7.20163L73.3 10.1141L73.7082 14L70 12.425L66.2918 14L66.7 10.1141L64 7.20163L67.9605 6.37501L70 3Z" fill="#EAECF0"/>
<path opacity="0.6" d="M87.75 13.1193C87.108 13.1193 86.5611 12.9446 86.1094 12.5952C85.6577 12.2429 85.3125 11.733 85.0739 11.0653C84.8352 10.3949 84.7159 9.58523 84.7159 8.63636C84.7159 7.69318 84.8352 6.88778 85.0739 6.22017C85.3153 5.54972 85.6619 5.03835 86.1136 4.68608C86.5682 4.33097 87.1136 4.15341 87.75 4.15341C88.3864 4.15341 88.9304 4.33097 89.3821 4.68608C89.8366 5.03835 90.1832 5.54972 90.4219 6.22017C90.6634 6.88778 90.7841 7.69318 90.7841 8.63636C90.7841 9.58523 90.6648 10.3949 90.4261 11.0653C90.1875 11.733 89.8423 12.2429 89.3906 12.5952C88.9389 12.9446 88.392 13.1193 87.75 13.1193ZM87.75 12.1818C88.3864 12.1818 88.8807 11.875 89.233 11.2614C89.5852 10.6477 89.7614 9.77273 89.7614 8.63636C89.7614 7.88068 89.6804 7.23722 89.5185 6.70597C89.3594 6.17472 89.1293 5.76989 88.8281 5.49148C88.5298 5.21307 88.1705 5.07386 87.75 5.07386C87.1193 5.07386 86.6264 5.38494 86.2713 6.0071C85.9162 6.62642 85.7386 7.50284 85.7386 8.63636C85.7386 9.39205 85.8182 10.0341 85.9773 10.5625C86.1364 11.0909 86.3651 11.4929 86.6634 11.7685C86.9645 12.044 87.3267 12.1818 87.75 12.1818Z" fill="#475467"/>
</svg>
