<svg width="232" height="18" viewBox="0 0 232 18" fill="none" xmlns="http://www.w3.org/2000/svg">
<path d="M6 3L8.03951 6.37501L12 7.20163L9.3 10.1141L9.7082 14L6 12.425L2.2918 14L2.7 10.1141L0 7.20163L3.96049 6.37501L6 3Z" fill="#FEC84B"/>
<path d="M2.2918 14L6 12.425V3L3.96049 6.37501L0 7.20163L2.7 10.1141L2.2918 14Z" fill="#FEC84B"/>
<path d="M22 3L24.0395 6.37501L28 7.20163L25.3 10.1141L25.7082 14L22 12.425L18.2918 14L18.7 10.1141L16 7.20163L19.9605 6.37501L22 3Z" fill="#FEC84B"/>
<path d="M18.2918 14L22 12.425V3L19.9605 6.37501L16 7.20163L18.7 10.1141L18.2918 14Z" fill="#FEC84B"/>
<path d="M38 3L40.0395 6.37501L44 7.20163L41.3 10.1141L41.7082 14L38 12.425L34.2918 14L34.7 10.1141L32 7.20163L35.9605 6.37501L38 3Z" fill="#FEC84B"/>
<path d="M34.2918 14L38 12.425V3L35.9605 6.37501L32 7.20163L34.7 10.1141L34.2918 14Z" fill="#FEC84B"/>
<path d="M54 3L56.0395 6.37501L60 7.20163L57.3 10.1141L57.7082 14L54 12.425L50.2918 14L50.7 10.1141L48 7.20163L51.9605 6.37501L54 3Z" fill="#EAECF0"/>
<path d="M70 3L72.0395 6.37501L76 7.20163L73.3 10.1141L73.7082 14L70 12.425L66.2918 14L66.7 10.1141L64 7.20163L67.9605 6.37501L70 3Z" fill="#EAECF0"/>
<path opacity="0.6" d="M87.9716 4.27273V13H86.9148V5.38068H86.8636L84.733 6.79545V5.72159L86.9148 4.27273H87.9716ZM93.277 13.1193C92.6918 13.1193 92.1747 13.0156 91.7259 12.8082C91.2798 12.598 90.9318 12.3097 90.6818 11.9432C90.4318 11.5739 90.3082 11.1534 90.3111 10.6818C90.3082 10.3125 90.3807 9.97159 90.5284 9.65909C90.6761 9.34375 90.8778 9.08097 91.1335 8.87074C91.392 8.65767 91.6804 8.52273 91.9986 8.46591V8.41477C91.581 8.30682 91.2486 8.07244 91.0014 7.71165C90.7543 7.34801 90.6321 6.93466 90.6349 6.47159C90.6321 6.02841 90.7443 5.6321 90.9716 5.28267C91.1989 4.93324 91.5114 4.65767 91.9091 4.45597C92.3097 4.25426 92.7656 4.15341 93.277 4.15341C93.7827 4.15341 94.2344 4.25426 94.6321 4.45597C95.0298 4.65767 95.3423 4.93324 95.5696 5.28267C95.7997 5.6321 95.9162 6.02841 95.919 6.47159C95.9162 6.93466 95.7898 7.34801 95.5398 7.71165C95.2926 8.07244 94.9645 8.30682 94.5554 8.41477V8.46591C94.8707 8.52273 95.1548 8.65767 95.4077 8.87074C95.6605 9.08097 95.8622 9.34375 96.0128 9.65909C96.1634 9.97159 96.2401 10.3125 96.2429 10.6818C96.2401 11.1534 96.1122 11.5739 95.8594 11.9432C95.6094 12.3097 95.2614 12.598 94.8153 12.8082C94.3722 13.0156 93.8594 13.1193 93.277 13.1193ZM93.277 12.1818C93.6719 12.1818 94.0128 12.1179 94.2997 11.9901C94.5866 11.8622 94.8082 11.6818 94.9645 11.4489C95.1207 11.2159 95.2003 10.9432 95.2031 10.6307C95.2003 10.3011 95.1151 10.0099 94.9474 9.7571C94.7798 9.50426 94.5511 9.3054 94.2614 9.16051C93.9744 9.01562 93.6463 8.94318 93.277 8.94318C92.9048 8.94318 92.5724 9.01562 92.2798 9.16051C91.9901 9.3054 91.7614 9.50426 91.5938 9.7571C91.429 10.0099 91.348 10.3011 91.3509 10.6307C91.348 10.9432 91.4233 11.2159 91.5767 11.4489C91.733 11.6818 91.956 11.8622 92.2457 11.9901C92.5355 12.1179 92.8793 12.1818 93.277 12.1818ZM93.277 8.03977C93.5895 8.03977 93.8665 7.97727 94.108 7.85227C94.3523 7.72727 94.544 7.55256 94.6832 7.32812C94.8224 7.10369 94.8935 6.84091 94.8963 6.53977C94.8935 6.24432 94.8239 5.98722 94.6875 5.76847C94.5511 5.54687 94.3622 5.37642 94.1207 5.2571C93.8793 5.13494 93.598 5.07386 93.277 5.07386C92.9503 5.07386 92.6648 5.13494 92.4205 5.2571C92.1761 5.37642 91.9872 5.54687 91.8537 5.76847C91.7202 5.98722 91.6548 6.24432 91.6577 6.53977C91.6548 6.84091 91.7216 7.10369 91.858 7.32812C91.9972 7.55256 92.1889 7.72727 92.4332 7.85227C92.6776 7.97727 92.9588 8.03977 93.277 8.03977ZM99.1236 11.8068L99.0554 12.267C99.0071 12.5909 98.9332 12.9375 98.8338 13.3068C98.7372 13.6761 98.6364 14.0241 98.5312 14.3509C98.4261 14.6776 98.3395 14.9375 98.2713 15.1307H97.5043C97.5412 14.9489 97.5895 14.7088 97.6491 14.4105C97.7088 14.1122 97.7685 13.7784 97.8281 13.4091C97.8906 13.0426 97.9418 12.6676 97.9815 12.2841L98.0327 11.8068H99.1236ZM103.666 4.15341C104.024 4.15625 104.382 4.22443 104.74 4.35795C105.098 4.49148 105.425 4.71307 105.72 5.02273C106.016 5.32955 106.253 5.74858 106.432 6.27983C106.611 6.81108 106.7 7.47727 106.7 8.27841C106.7 9.05398 106.626 9.7429 106.479 10.3452C106.334 10.9446 106.124 11.4503 105.848 11.8622C105.575 12.2741 105.243 12.5866 104.851 12.7997C104.462 13.0128 104.021 13.1193 103.53 13.1193C103.041 13.1193 102.605 13.0227 102.222 12.8295C101.841 12.6335 101.528 12.3622 101.284 12.0156C101.043 11.6662 100.888 11.2614 100.82 10.8011H101.859C101.953 11.2017 102.139 11.5327 102.418 11.794C102.699 12.0526 103.07 12.1818 103.53 12.1818C104.203 12.1818 104.734 11.8878 105.124 11.2997C105.516 10.7116 105.712 9.88068 105.712 8.80682H105.643C105.484 9.04545 105.295 9.25142 105.077 9.42472C104.858 9.59801 104.615 9.73153 104.348 9.82528C104.081 9.91903 103.797 9.96591 103.496 9.96591C102.996 9.96591 102.537 9.84233 102.119 9.59517C101.705 9.34517 101.372 9.00284 101.122 8.56818C100.875 8.13068 100.751 7.63068 100.751 7.06818C100.751 6.53409 100.871 6.04545 101.109 5.60227C101.351 5.15625 101.689 4.80114 102.124 4.53693C102.561 4.27273 103.075 4.14489 103.666 4.15341ZM103.666 5.09091C103.308 5.09091 102.986 5.1804 102.699 5.35938C102.415 5.53551 102.189 5.77415 102.021 6.07528C101.857 6.37358 101.774 6.70455 101.774 7.06818C101.774 7.43182 101.854 7.76278 102.013 8.06108C102.175 8.35653 102.395 8.59233 102.673 8.76847C102.955 8.94176 103.274 9.02841 103.632 9.02841C103.902 9.02841 104.153 8.97585 104.386 8.87074C104.619 8.76278 104.822 8.61648 104.996 8.43182C105.172 8.24432 105.31 8.03267 105.409 7.79688C105.509 7.55824 105.558 7.30966 105.558 7.05114C105.558 6.71023 105.476 6.39062 105.311 6.09233C105.149 5.79403 104.925 5.55256 104.638 5.3679C104.354 5.18324 104.03 5.09091 103.666 5.09091ZM111.172 13.1193C110.586 13.1193 110.069 13.0156 109.62 12.8082C109.174 12.598 108.826 12.3097 108.576 11.9432C108.326 11.5739 108.203 11.1534 108.206 10.6818C108.203 10.3125 108.275 9.97159 108.423 9.65909C108.571 9.34375 108.772 9.08097 109.028 8.87074C109.287 8.65767 109.575 8.52273 109.893 8.46591V8.41477C109.475 8.30682 109.143 8.07244 108.896 7.71165C108.649 7.34801 108.527 6.93466 108.529 6.47159C108.527 6.02841 108.639 5.6321 108.866 5.28267C109.093 4.93324 109.406 4.65767 109.804 4.45597C110.204 4.25426 110.66 4.15341 111.172 4.15341C111.677 4.15341 112.129 4.25426 112.527 4.45597C112.924 4.65767 113.237 4.93324 113.464 5.28267C113.694 5.6321 113.811 6.02841 113.814 6.47159C113.811 6.93466 113.684 7.34801 113.434 7.71165C113.187 8.07244 112.859 8.30682 112.45 8.41477V8.46591C112.765 8.52273 113.049 8.65767 113.302 8.87074C113.555 9.08097 113.757 9.34375 113.907 9.65909C114.058 9.97159 114.135 10.3125 114.137 10.6818C114.135 11.1534 114.007 11.5739 113.754 11.9432C113.504 12.3097 113.156 12.598 112.71 12.8082C112.267 13.0156 111.754 13.1193 111.172 13.1193ZM111.172 12.1818C111.566 12.1818 111.907 12.1179 112.194 11.9901C112.481 11.8622 112.703 11.6818 112.859 11.4489C113.015 11.2159 113.095 10.9432 113.098 10.6307C113.095 10.3011 113.01 10.0099 112.842 9.7571C112.674 9.50426 112.446 9.3054 112.156 9.16051C111.869 9.01562 111.541 8.94318 111.172 8.94318C110.799 8.94318 110.467 9.01562 110.174 9.16051C109.885 9.3054 109.656 9.50426 109.488 9.7571C109.324 10.0099 109.243 10.3011 109.245 10.6307C109.243 10.9432 109.318 11.2159 109.471 11.4489C109.627 11.6818 109.85 11.8622 110.14 11.9901C110.43 12.1179 110.774 12.1818 111.172 12.1818ZM111.172 8.03977C111.484 8.03977 111.761 7.97727 112.002 7.85227C112.247 7.72727 112.439 7.55256 112.578 7.32812C112.717 7.10369 112.788 6.84091 112.791 6.53977C112.788 6.24432 112.718 5.98722 112.582 5.76847C112.446 5.54687 112.257 5.37642 112.015 5.2571C111.774 5.13494 111.493 5.07386 111.172 5.07386C110.845 5.07386 110.559 5.13494 110.315 5.2571C110.071 5.37642 109.882 5.54687 109.748 5.76847C109.615 5.98722 109.549 6.24432 109.552 6.53977C109.549 6.84091 109.616 7.10369 109.752 7.32812C109.892 7.55256 110.083 7.72727 110.328 7.85227C110.572 7.97727 110.853 8.03977 111.172 8.03977ZM115.771 13V12.233L118.651 9.07955C118.989 8.71023 119.268 8.3892 119.487 8.11648C119.705 7.84091 119.867 7.58239 119.972 7.34091C120.08 7.09659 120.134 6.84091 120.134 6.57386C120.134 6.26705 120.06 6.00142 119.913 5.77699C119.768 5.55256 119.569 5.37926 119.316 5.2571C119.063 5.13494 118.779 5.07386 118.464 5.07386C118.129 5.07386 117.836 5.14347 117.586 5.28267C117.339 5.41903 117.147 5.6108 117.011 5.85795C116.877 6.10511 116.81 6.39489 116.81 6.72727H115.805C115.805 6.21591 115.923 5.76705 116.158 5.38068C116.394 4.99432 116.715 4.69318 117.121 4.47727C117.531 4.26136 117.989 4.15341 118.498 4.15341C119.009 4.15341 119.462 4.26136 119.857 4.47727C120.252 4.69318 120.562 4.98437 120.786 5.35085C121.011 5.71733 121.123 6.125 121.123 6.57386C121.123 6.89489 121.065 7.20881 120.948 7.51562C120.835 7.8196 120.636 8.15909 120.352 8.53409C120.07 8.90625 119.68 9.3608 119.18 9.89773L117.219 11.9943V12.0625H121.276V13H115.771Z" fill="#475467"/>
</svg>
