<svg width="92" height="22" viewBox="0 0 92 22" fill="none" xmlns="http://www.w3.org/2000/svg">
<path d="M0 4C0 1.79086 1.79086 0 4 0H88C90.2091 0 92 1.79086 92 4V18C92 20.2091 90.2091 22 88 22H4C1.79086 22 0 20.2091 0 18V4Z" fill="#ECFDF3"/>
<circle cx="11" cy="11" r="3" fill="#039855"/>
<path d="M28.0795 9H27.0227C26.9602 8.69602 26.8509 8.42898 26.6946 8.19886C26.5412 7.96875 26.3537 7.77557 26.1321 7.61932C25.9134 7.46023 25.6705 7.34091 25.4034 7.26136C25.1364 7.18182 24.858 7.14205 24.5682 7.14205C24.0398 7.14205 23.5611 7.27557 23.1321 7.54261C22.706 7.80966 22.3665 8.20312 22.1136 8.72301C21.8636 9.2429 21.7386 9.88068 21.7386 10.6364C21.7386 11.392 21.8636 12.0298 22.1136 12.5497C22.3665 13.0696 22.706 13.4631 23.1321 13.7301C23.5611 13.9972 24.0398 14.1307 24.5682 14.1307C24.858 14.1307 25.1364 14.0909 25.4034 14.0114C25.6705 13.9318 25.9134 13.8139 26.1321 13.6577C26.3537 13.4986 26.5412 13.304 26.6946 13.0739C26.8509 12.8409 26.9602 12.5739 27.0227 12.2727H28.0795C28 12.7187 27.8551 13.1179 27.6449 13.4702C27.4347 13.8224 27.1733 14.1222 26.8608 14.3693C26.5483 14.6136 26.1974 14.7997 25.8082 14.9276C25.4219 15.0554 25.0085 15.1193 24.5682 15.1193C23.8239 15.1193 23.1619 14.9375 22.5824 14.5739C22.0028 14.2102 21.5469 13.6932 21.2145 13.0227C20.8821 12.3523 20.7159 11.5568 20.7159 10.6364C20.7159 9.71591 20.8821 8.92045 21.2145 8.25C21.5469 7.57955 22.0028 7.0625 22.5824 6.69886C23.1619 6.33523 23.8239 6.15341 24.5682 6.15341C25.0085 6.15341 25.4219 6.21733 25.8082 6.34517C26.1974 6.47301 26.5483 6.66051 26.8608 6.90767C27.1733 7.15199 27.4347 7.45028 27.6449 7.80256C27.8551 8.15199 28 8.55114 28.0795 9ZM31.5771 15.1534C31.1623 15.1534 30.7859 15.0753 30.4478 14.919C30.1097 14.7599 29.8413 14.5312 29.6424 14.233C29.4435 13.9318 29.3441 13.5682 29.3441 13.142C29.3441 12.767 29.418 12.4631 29.5657 12.2301C29.7134 11.9943 29.9109 11.8097 30.158 11.6761C30.4052 11.5426 30.6779 11.4432 30.9762 11.3778C31.2773 11.3097 31.5799 11.2557 31.8839 11.2159C32.2816 11.1648 32.604 11.1264 32.8512 11.1009C33.1012 11.0724 33.283 11.0256 33.3967 10.9602C33.5131 10.8949 33.5714 10.7812 33.5714 10.6193V10.5852C33.5714 10.1648 33.4563 9.83807 33.2262 9.60511C32.9989 9.37216 32.6538 9.25568 32.1907 9.25568C31.7106 9.25568 31.3342 9.3608 31.0614 9.57102C30.7887 9.78125 30.5969 10.0057 30.4862 10.2443L29.5316 9.90341C29.7021 9.50568 29.9293 9.19602 30.2134 8.97443C30.5004 8.75 30.8129 8.59375 31.1509 8.50568C31.4918 8.41477 31.8271 8.36932 32.1566 8.36932C32.3668 8.36932 32.6083 8.39489 32.881 8.44602C33.1566 8.49432 33.4222 8.59517 33.6779 8.74858C33.9364 8.90199 34.1509 9.13352 34.3214 9.44318C34.4918 9.75284 34.5771 10.1676 34.5771 10.6875V15H33.5714V14.1136H33.5202C33.4521 14.2557 33.3384 14.4077 33.1793 14.5696C33.0202 14.7315 32.8086 14.8693 32.5444 14.983C32.2802 15.0966 31.9577 15.1534 31.5771 15.1534ZM31.7305 14.25C32.1282 14.25 32.4634 14.1719 32.7362 14.0156C33.0117 13.8594 33.2191 13.6577 33.3583 13.4105C33.5004 13.1634 33.5714 12.9034 33.5714 12.6307V11.7102C33.5288 11.7614 33.435 11.8082 33.2901 11.8509C33.1481 11.8906 32.9833 11.9261 32.7958 11.9574C32.6112 11.9858 32.4308 12.0114 32.2546 12.0341C32.0813 12.054 31.9407 12.071 31.8327 12.0852C31.5714 12.1193 31.3271 12.1747 31.0998 12.2514C30.8754 12.3253 30.6935 12.4375 30.5543 12.5881C30.418 12.7358 30.3498 12.9375 30.3498 13.1932C30.3498 13.5426 30.479 13.8068 30.7376 13.9858C30.9989 14.1619 31.3299 14.25 31.7305 14.25ZM36.4126 15V8.45455H37.3842V9.44318H37.4524C37.5717 9.11932 37.7876 8.85653 38.1001 8.65483C38.4126 8.45312 38.7649 8.35227 39.157 8.35227C39.2308 8.35227 39.3232 8.35369 39.4339 8.35653C39.5447 8.35937 39.6286 8.36364 39.6854 8.36932V9.39205C39.6513 9.38352 39.5732 9.37074 39.451 9.35369C39.3317 9.33381 39.2053 9.32386 39.0717 9.32386C38.7536 9.32386 38.4695 9.39062 38.2195 9.52415C37.9723 9.65483 37.7763 9.83665 37.6314 10.0696C37.4893 10.2997 37.4183 10.5625 37.4183 10.858V15H36.4126ZM43.1499 15.1364C42.6044 15.1364 42.1229 14.9986 41.7053 14.723C41.2876 14.4446 40.9609 14.0526 40.7251 13.5469C40.4893 13.0384 40.3714 12.4375 40.3714 11.7443C40.3714 11.0568 40.4893 10.4602 40.7251 9.95455C40.9609 9.44886 41.2891 9.05824 41.7095 8.78267C42.13 8.5071 42.6158 8.36932 43.1669 8.36932C43.593 8.36932 43.9297 8.44034 44.1768 8.58239C44.4268 8.72159 44.6172 8.88068 44.7479 9.05966C44.8814 9.2358 44.9851 9.38068 45.0589 9.49432H45.1442V6.27273H46.1499V15H45.1783V13.9943H45.0589C44.9851 14.1136 44.88 14.2642 44.7436 14.446C44.6072 14.625 44.4126 14.7855 44.1598 14.9276C43.907 15.0668 43.5703 15.1364 43.1499 15.1364ZM43.2862 14.233C43.6896 14.233 44.0305 14.1278 44.3089 13.9176C44.5874 13.7045 44.799 13.4105 44.9439 13.0355C45.0888 12.6577 45.1612 12.2216 45.1612 11.7273C45.1612 11.2386 45.0902 10.8111 44.9482 10.4446C44.8061 10.0753 44.5959 9.78835 44.3175 9.58381C44.0391 9.37642 43.6953 9.27273 43.2862 9.27273C42.8601 9.27273 42.505 9.3821 42.2209 9.60085C41.9396 9.81676 41.728 10.1108 41.5859 10.483C41.4467 10.8523 41.3771 11.267 41.3771 11.7273C41.3771 12.1932 41.4482 12.6165 41.5902 12.9972C41.7351 13.375 41.9482 13.6761 42.2294 13.9006C42.5135 14.1222 42.8658 14.233 43.2862 14.233ZM57.6087 9C57.5149 8.71307 57.3913 8.45597 57.2379 8.22869C57.0874 7.99858 56.907 7.80256 56.6967 7.64062C56.4893 7.47869 56.2536 7.35511 55.9893 7.26989C55.7251 7.18466 55.4354 7.14205 55.12 7.14205C54.603 7.14205 54.1328 7.27557 53.7095 7.54261C53.2862 7.80966 52.9496 8.20312 52.6996 8.72301C52.4496 9.2429 52.3246 9.88068 52.3246 10.6364C52.3246 11.392 52.451 12.0298 52.7038 12.5497C52.9567 13.0696 53.299 13.4631 53.7308 13.7301C54.1626 13.9972 54.6484 14.1307 55.1882 14.1307C55.6882 14.1307 56.1286 14.0241 56.5092 13.8111C56.8928 13.5952 57.1911 13.2912 57.4041 12.8991C57.62 12.5043 57.728 12.0398 57.728 11.5057L58.0518 11.5739H55.4268V10.6364H58.7507V11.5739C58.7507 12.2926 58.5973 12.9176 58.2905 13.4489C57.9865 13.9801 57.5661 14.392 57.0291 14.6847C56.495 14.9744 55.8814 15.1193 55.1882 15.1193C54.4155 15.1193 53.7365 14.9375 53.1513 14.5739C52.5689 14.2102 52.1143 13.6932 51.7876 13.0227C51.4638 12.3523 51.3018 11.5568 51.3018 10.6364C51.3018 9.94602 51.3942 9.32528 51.5788 8.77415C51.7663 8.22017 52.0305 7.74858 52.3714 7.35938C52.7124 6.97017 53.1158 6.67188 53.5817 6.46449C54.0476 6.2571 54.5604 6.15341 55.12 6.15341C55.5803 6.15341 56.0092 6.22301 56.407 6.36222C56.8075 6.49858 57.1641 6.69318 57.4766 6.94602C57.7919 7.19602 58.0547 7.49574 58.2649 7.84517C58.4751 8.19176 58.62 8.5767 58.6996 9H57.6087ZM62.3505 15.1534C61.9357 15.1534 61.5593 15.0753 61.2212 14.919C60.8832 14.7599 60.6147 14.5312 60.4158 14.233C60.217 13.9318 60.1175 13.5682 60.1175 13.142C60.1175 12.767 60.1914 12.4631 60.3391 12.2301C60.4869 11.9943 60.6843 11.8097 60.9315 11.6761C61.1786 11.5426 61.4513 11.4432 61.7496 11.3778C62.0508 11.3097 62.3533 11.2557 62.6573 11.2159C63.055 11.1648 63.3775 11.1264 63.6246 11.1009C63.8746 11.0724 64.0565 11.0256 64.1701 10.9602C64.2866 10.8949 64.3448 10.7812 64.3448 10.6193V10.5852C64.3448 10.1648 64.2298 9.83807 63.9996 9.60511C63.7724 9.37216 63.4272 9.25568 62.9641 9.25568C62.484 9.25568 62.1076 9.3608 61.8349 9.57102C61.5621 9.78125 61.3704 10.0057 61.2596 10.2443L60.305 9.90341C60.4755 9.50568 60.7028 9.19602 60.9869 8.97443C61.2738 8.75 61.5863 8.59375 61.9244 8.50568C62.2653 8.41477 62.6005 8.36932 62.93 8.36932C63.1403 8.36932 63.3817 8.39489 63.6545 8.44602C63.93 8.49432 64.1957 8.59517 64.4513 8.74858C64.7099 8.90199 64.9244 9.13352 65.0948 9.44318C65.2653 9.75284 65.3505 10.1676 65.3505 10.6875V15H64.3448V14.1136H64.2937C64.2255 14.2557 64.1119 14.4077 63.9528 14.5696C63.7937 14.7315 63.582 14.8693 63.3178 14.983C63.0536 15.0966 62.7312 15.1534 62.3505 15.1534ZM62.5039 14.25C62.9016 14.25 63.2369 14.1719 63.5096 14.0156C63.7852 13.8594 63.9925 13.6577 64.1317 13.4105C64.2738 13.1634 64.3448 12.9034 64.3448 12.6307V11.7102C64.3022 11.7614 64.2085 11.8082 64.0636 11.8509C63.9215 11.8906 63.7567 11.9261 63.5692 11.9574C63.3846 11.9858 63.2042 12.0114 63.0281 12.0341C62.8548 12.054 62.7141 12.071 62.6062 12.0852C62.3448 12.1193 62.1005 12.1747 61.8732 12.2514C61.6488 12.3253 61.467 12.4375 61.3278 12.5881C61.1914 12.7358 61.1232 12.9375 61.1232 13.1932C61.1232 13.5426 61.2525 13.8068 61.511 13.9858C61.7724 14.1619 62.1033 14.25 62.5039 14.25ZM67.1861 15V8.45455H68.1577V9.47727H68.2429C68.3793 9.12784 68.5994 8.85653 68.9034 8.66335C69.2074 8.46733 69.5724 8.36932 69.9986 8.36932C70.4304 8.36932 70.7898 8.46733 71.0767 8.66335C71.3665 8.85653 71.5923 9.12784 71.7543 9.47727H71.8224C71.9901 9.1392 72.2415 8.87074 72.5767 8.67188C72.9119 8.47017 73.3139 8.36932 73.7827 8.36932C74.3679 8.36932 74.8466 8.55256 75.2188 8.91903C75.5909 9.28267 75.777 9.84943 75.777 10.6193V15H74.7713V10.6193C74.7713 10.1364 74.6392 9.79119 74.375 9.58381C74.1108 9.37642 73.7997 9.27273 73.4418 9.27273C72.9815 9.27273 72.625 9.41193 72.3722 9.69034C72.1193 9.96591 71.9929 10.3153 71.9929 10.7386V15H70.9702V10.517C70.9702 10.1449 70.8494 9.84517 70.608 9.6179C70.3665 9.38778 70.0554 9.27273 69.6747 9.27273C69.4134 9.27273 69.169 9.34233 68.9418 9.48153C68.7173 9.62074 68.5355 9.81392 68.3963 10.0611C68.2599 10.3054 68.1918 10.5881 68.1918 10.9091V15H67.1861ZM80.3601 15.1364C79.7294 15.1364 79.1854 14.9972 78.728 14.7188C78.2734 14.4375 77.9226 14.0455 77.6754 13.5426C77.4311 13.0369 77.3089 12.4489 77.3089 11.7784C77.3089 11.108 77.4311 10.517 77.6754 10.0057C77.9226 9.49148 78.2663 9.09091 78.7067 8.80398C79.1499 8.5142 79.6669 8.36932 80.2578 8.36932C80.5987 8.36932 80.9354 8.42614 81.2678 8.53977C81.6001 8.65341 81.9027 8.83807 82.1754 9.09375C82.4482 9.34659 82.6655 9.68182 82.8274 10.0994C82.9893 10.517 83.0703 11.0312 83.0703 11.642V12.0682H78.0249V11.1989H82.0476C82.0476 10.8295 81.9737 10.5 81.826 10.2102C81.6811 9.92045 81.4737 9.69176 81.2038 9.52415C80.9368 9.35653 80.6214 9.27273 80.2578 9.27273C79.8572 9.27273 79.5107 9.37216 79.218 9.57102C78.9283 9.76705 78.7053 10.0227 78.549 10.3381C78.3928 10.6534 78.3146 10.9915 78.3146 11.3523V11.9318C78.3146 12.4261 78.3999 12.8452 78.5703 13.1889C78.7436 13.5298 78.9837 13.7898 79.2905 13.9688C79.5973 14.1449 79.9538 14.233 80.3601 14.233C80.6243 14.233 80.8629 14.196 81.076 14.1222C81.2919 14.0455 81.478 13.9318 81.6342 13.7812C81.7905 13.6278 81.9112 13.4375 81.9964 13.2102L82.968 13.483C82.8658 13.8125 82.6939 14.1023 82.4524 14.3523C82.2109 14.5994 81.9126 14.7926 81.5575 14.9318C81.2024 15.0682 80.8033 15.1364 80.3601 15.1364Z" fill="#039855"/>
</svg>
