<svg width="232" height="26" viewBox="0 0 232 26" fill="none" xmlns="http://www.w3.org/2000/svg">
<g clip-path="url(#clip0_2615_1610)">
<rect y="13" width="188" height="1" fill="#D0D5DD"/>
<path d="M4.7112 20.4545V5.90909H5.64302V20.4545H4.7112ZM7.62598 10.4205C7.56537 9.88258 7.31537 9.46591 6.87598 9.17045C6.43658 8.87121 5.88355 8.72159 5.21689 8.72159C4.73961 8.72159 4.32673 8.79735 3.97825 8.94886C3.62976 9.09659 3.35893 9.30114 3.16575 9.5625C2.97636 9.82008 2.88166 10.1136 2.88166 10.4432C2.88166 10.7197 2.94605 10.9583 3.07484 11.1591C3.20742 11.3598 3.37976 11.5284 3.59189 11.6648C3.80779 11.7973 4.03886 11.9091 4.28507 12C4.53128 12.0871 4.76802 12.1591 4.9953 12.2159L6.13166 12.5114C6.50287 12.6023 6.88355 12.7254 7.2737 12.8807C7.66386 13.036 8.0256 13.2405 8.35893 13.4943C8.69226 13.7481 8.9612 14.0625 9.16575 14.4375C9.37408 14.8125 9.47825 15.2614 9.47825 15.7841C9.47825 16.4432 9.30779 17.0284 8.96689 17.5398C8.62976 18.0511 8.13923 18.4545 7.4953 18.75C6.85514 19.0455 6.08052 19.1932 5.17143 19.1932C4.30022 19.1932 3.54643 19.0549 2.91007 18.7784C2.2737 18.5019 1.7756 18.1098 1.41575 17.6023C1.0559 17.0909 0.857037 16.4848 0.819158 15.7841H2.58052C2.61461 16.2045 2.75098 16.5549 2.98961 16.8352C3.23204 17.1117 3.54075 17.3182 3.91575 17.4545C4.29454 17.5871 4.70931 17.6534 5.16007 17.6534C5.65628 17.6534 6.09757 17.5758 6.48393 17.4205C6.87408 17.2614 7.1809 17.0417 7.40439 16.7614C7.62787 16.4773 7.73961 16.1458 7.73961 15.767C7.73961 15.4223 7.64113 15.1402 7.44416 14.9205C7.25098 14.7008 6.98772 14.5189 6.65439 14.375C6.32484 14.2311 5.95173 14.1042 5.53507 13.9943L4.16007 13.6193C3.22825 13.3655 2.48961 12.9924 1.94416 12.5C1.40249 12.0076 1.13166 11.3561 1.13166 10.5455C1.13166 9.875 1.31348 9.28977 1.67711 8.78977C2.04075 8.28977 2.53317 7.90151 3.15439 7.625C3.7756 7.3447 4.47636 7.20455 5.25666 7.20455C6.04454 7.20455 6.73961 7.3428 7.34189 7.61932C7.94795 7.89583 8.42522 8.27652 8.7737 8.76136C9.12219 9.24242 9.30401 9.79545 9.31916 10.4205H7.62598ZM15.8319 7.36364V19H14.0706V9.125H14.0024L11.2183 10.9432V9.26136L14.1217 7.36364H15.8319ZM20.5407 17.4091L20.4555 18.0284C20.3987 18.483 20.3021 18.9564 20.1657 19.4489C20.0332 19.9451 19.8949 20.4053 19.751 20.8295C19.6108 21.2538 19.4953 21.5909 19.4044 21.8409H18.1998C18.2491 21.6061 18.3173 21.2879 18.4044 20.8864C18.4915 20.4886 18.5767 20.0436 18.6601 19.5511C18.7434 19.0587 18.8059 18.5568 18.8476 18.0455L18.9044 17.4091H20.5407ZM22.9172 19V17.7273L26.8547 13.6477C27.2751 13.2045 27.6217 12.8163 27.8944 12.483C28.171 12.1458 28.3774 11.8258 28.5138 11.5227C28.6501 11.2197 28.7183 10.8977 28.7183 10.5568C28.7183 10.1705 28.6274 9.83712 28.4456 9.55682C28.2638 9.27273 28.0157 9.05492 27.7013 8.90341C27.3869 8.74811 27.0327 8.67045 26.6388 8.67045C26.2221 8.67045 25.8585 8.75568 25.5479 8.92614C25.2372 9.09659 24.9986 9.33712 24.8319 9.64773C24.6653 9.95833 24.5819 10.322 24.5819 10.7386H22.9058C22.9058 10.0303 23.0687 9.41098 23.3944 8.88068C23.7202 8.35038 24.1672 7.93939 24.7354 7.64773C25.3035 7.35227 25.9494 7.20455 26.6729 7.20455C27.4039 7.20455 28.0479 7.35038 28.6047 7.64205C29.1653 7.92992 29.6028 8.32386 29.9172 8.82386C30.2316 9.32008 30.3888 9.88068 30.3888 10.5057C30.3888 10.9375 30.3073 11.3598 30.1444 11.7727C29.9854 12.1856 29.7069 12.6458 29.3092 13.1534C28.9115 13.6572 28.3585 14.2689 27.6501 14.9886L25.3376 17.4091V17.4943H30.5763V19H22.9172ZM36.599 7.20455C37.1179 7.20833 37.6293 7.30303 38.1331 7.48864C38.6369 7.67424 39.0914 7.97727 39.4967 8.39773C39.9058 8.81818 40.2316 9.38636 40.474 10.1023C40.7202 10.8144 40.8452 11.7008 40.849 12.7614C40.849 13.7803 40.7467 14.6875 40.5422 15.483C40.3376 16.2746 40.0441 16.9432 39.6615 17.4886C39.2827 18.0341 38.8225 18.4489 38.2808 18.733C37.7391 19.017 37.1293 19.1591 36.4513 19.1591C35.7581 19.1591 35.1425 19.0227 34.6047 18.75C34.0668 18.4773 33.6293 18.1004 33.2922 17.6193C32.955 17.1345 32.7448 16.5777 32.6615 15.9489H34.3944C34.5081 16.4489 34.7391 16.8542 35.0876 17.1648C35.4399 17.4716 35.8944 17.625 36.4513 17.625C37.3035 17.625 37.9683 17.2538 38.4456 16.5114C38.9229 15.7652 39.1634 14.7235 39.1672 13.3864H39.0763C38.8793 13.7121 38.6331 13.9924 38.3376 14.2273C38.046 14.4621 37.7183 14.6439 37.3547 14.7727C36.991 14.9015 36.6028 14.9659 36.1899 14.9659C35.5194 14.9659 34.9096 14.8011 34.3604 14.4716C33.8111 14.142 33.3736 13.6894 33.0479 13.1136C32.7221 12.5379 32.5592 11.8807 32.5592 11.142C32.5592 10.4072 32.7259 9.74053 33.0592 9.14205C33.3963 8.54356 33.866 8.07008 34.4683 7.72159C35.0744 7.36932 35.7846 7.19697 36.599 7.20455ZM36.6047 8.68182C36.1615 8.68182 35.7619 8.79167 35.4058 9.01136C35.0535 9.22727 34.7751 9.52083 34.5706 9.89205C34.366 10.2595 34.2638 10.6686 34.2638 11.1193C34.2638 11.5701 34.3622 11.9792 34.5592 12.3466C34.76 12.7102 35.0327 13 35.3774 13.2159C35.7259 13.428 36.1236 13.5341 36.5706 13.5341C36.9039 13.5341 37.2145 13.4697 37.5024 13.3409C37.7903 13.2121 38.0422 13.0341 38.2581 12.8068C38.474 12.5758 38.6425 12.3144 38.7638 12.0227C38.885 11.7311 38.9456 11.4242 38.9456 11.1023C38.9456 10.6742 38.8433 10.2765 38.6388 9.90909C38.438 9.54167 38.1615 9.24621 37.8092 9.02273C37.4569 8.79545 37.0554 8.68182 36.6047 8.68182ZM46.7709 7.20455C47.2898 7.20833 47.8012 7.30303 48.305 7.48864C48.8087 7.67424 49.2633 7.97727 49.6686 8.39773C50.0777 8.81818 50.4034 9.38636 50.6459 10.1023C50.8921 10.8144 51.0171 11.7008 51.0209 12.7614C51.0209 13.7803 50.9186 14.6875 50.714 15.483C50.5095 16.2746 50.2159 16.9432 49.8334 17.4886C49.4546 18.0341 48.9943 18.4489 48.4527 18.733C47.911 19.017 47.3012 19.1591 46.6231 19.1591C45.93 19.1591 45.3144 19.0227 44.7765 18.75C44.2387 18.4773 43.8012 18.1004 43.464 17.6193C43.1269 17.1345 42.9167 16.5777 42.8334 15.9489H44.5663C44.68 16.4489 44.911 16.8542 45.2595 17.1648C45.6118 17.4716 46.0663 17.625 46.6231 17.625C47.4754 17.625 48.1402 17.2538 48.6175 16.5114C49.0947 15.7652 49.3353 14.7235 49.339 13.3864H49.2481C49.0512 13.7121 48.805 13.9924 48.5095 14.2273C48.2178 14.4621 47.8902 14.6439 47.5265 14.7727C47.1629 14.9015 46.7747 14.9659 46.3618 14.9659C45.6913 14.9659 45.0815 14.8011 44.5322 14.4716C43.983 14.142 43.5455 13.6894 43.2197 13.1136C42.894 12.5379 42.7311 11.8807 42.7311 11.142C42.7311 10.4072 42.8978 9.74053 43.2311 9.14205C43.5682 8.54356 44.0379 8.07008 44.6402 7.72159C45.2462 7.36932 45.9565 7.19697 46.7709 7.20455ZM46.7765 8.68182C46.3334 8.68182 45.9337 8.79167 45.5777 9.01136C45.2254 9.22727 44.947 9.52083 44.7425 9.89205C44.5379 10.2595 44.4356 10.6686 44.4356 11.1193C44.4356 11.5701 44.5341 11.9792 44.7311 12.3466C44.9318 12.7102 45.2046 13 45.5493 13.2159C45.8978 13.428 46.2955 13.5341 46.7425 13.5341C47.0758 13.5341 47.3864 13.4697 47.6743 13.3409C47.9622 13.2121 48.214 13.0341 48.43 12.8068C48.6459 12.5758 48.8144 12.3144 48.9356 12.0227C49.0568 11.7311 49.1175 11.4242 49.1175 11.1023C49.1175 10.6742 49.0152 10.2765 48.8106 9.90909C48.6099 9.54167 48.3334 9.24621 47.9811 9.02273C47.6288 8.79545 47.2273 8.68182 46.7765 8.68182Z" fill="#D0D5DD"/>
</g>
<path d="M64.7851 20.4545V5.90909H65.7169V20.4545H64.7851ZM67.4726 10.5625C67.4195 10.0663 67.1961 9.67992 66.8021 9.40341C66.412 9.12689 65.9044 8.98864 65.2794 8.98864C64.84 8.98864 64.4631 9.05492 64.1487 9.1875C63.8343 9.32008 63.5938 9.5 63.4271 9.72727C63.2604 9.95455 63.1752 10.214 63.1714 10.5057C63.1714 10.7481 63.2264 10.9583 63.3362 11.1364C63.4498 11.3144 63.6032 11.4659 63.7964 11.5909C63.9896 11.7121 64.2036 11.8144 64.4385 11.8977C64.6733 11.9811 64.9101 12.0511 65.1487 12.108L66.2396 12.3807C66.679 12.483 67.1014 12.6212 67.5067 12.7955C67.9157 12.9697 68.2813 13.1894 68.6032 13.4545C68.929 13.7197 69.1866 14.0398 69.376 14.4148C69.5654 14.7898 69.6601 15.2292 69.6601 15.733C69.6601 16.4148 69.4858 17.0152 69.1373 17.5341C68.7889 18.0492 68.2851 18.4527 67.626 18.7443C66.9707 19.0322 66.1771 19.1761 65.2453 19.1761C64.34 19.1761 63.554 19.036 62.8873 18.7557C62.2245 18.4754 61.7055 18.0663 61.3305 17.5284C60.9593 16.9905 60.7586 16.3352 60.7282 15.5625H62.8021C62.8324 15.9678 62.9574 16.3049 63.1771 16.5739C63.3968 16.8428 63.6828 17.0436 64.0351 17.1761C64.3911 17.3087 64.7889 17.375 65.2282 17.375C65.6866 17.375 66.0881 17.3068 66.4328 17.1705C66.7813 17.0303 67.054 16.8371 67.251 16.5909C67.4479 16.3409 67.5483 16.0492 67.5521 15.7159C67.5483 15.4129 67.4593 15.1629 67.2851 14.9659C67.1108 14.7652 66.8665 14.5985 66.5521 14.4659C66.2415 14.3295 65.8779 14.2083 65.4612 14.1023L64.1373 13.7614C63.179 13.5152 62.4214 13.142 61.8646 12.642C61.3116 12.1383 61.0351 11.4697 61.0351 10.6364C61.0351 9.95076 61.2207 9.35038 61.5919 8.83523C61.9669 8.32008 62.4764 7.92045 63.1203 7.63636C63.7642 7.34848 64.4934 7.20455 65.3078 7.20455C66.1336 7.20455 66.857 7.34848 67.4782 7.63636C68.1032 7.92045 68.5938 8.31629 68.9498 8.82386C69.3059 9.32765 69.4896 9.9072 69.501 10.5625H67.4726ZM75.6871 19.1591C75.1302 19.1553 74.5867 19.0587 74.0564 18.8693C73.5261 18.6761 73.0488 18.3636 72.6246 17.9318C72.2003 17.4962 71.8632 16.9186 71.6132 16.1989C71.3632 15.4754 71.2401 14.5795 71.2439 13.5114C71.2439 12.5152 71.3499 11.6269 71.5621 10.8466C71.7742 10.0663 72.0791 9.4072 72.4768 8.86932C72.8746 8.32765 73.3537 7.91477 73.9143 7.63068C74.4787 7.34659 75.1094 7.20455 75.8064 7.20455C76.5374 7.20455 77.1852 7.34848 77.7496 7.63636C78.3177 7.92424 78.7761 8.31818 79.1246 8.81818C79.473 9.31439 79.689 9.875 79.7723 10.5H77.6984C77.5924 10.053 77.3746 9.69697 77.045 9.43182C76.7193 9.16288 76.3064 9.02841 75.8064 9.02841C74.9996 9.02841 74.3783 9.37879 73.9427 10.0795C73.5109 10.7803 73.2931 11.7424 73.2893 12.9659H73.3689C73.5545 12.6326 73.795 12.3466 74.0905 12.108C74.3859 11.8693 74.7193 11.6856 75.0905 11.5568C75.4655 11.4242 75.8613 11.358 76.278 11.358C76.9598 11.358 77.5715 11.5208 78.1132 11.8466C78.6586 12.1723 79.0905 12.6212 79.4086 13.1932C79.7268 13.7614 79.884 14.4129 79.8802 15.1477C79.884 15.9129 79.7098 16.6004 79.3575 17.2102C79.0052 17.8163 78.5147 18.2936 77.8859 18.642C77.2571 18.9905 76.5242 19.1629 75.6871 19.1591ZM75.6757 17.4545C76.0886 17.4545 76.4579 17.3542 76.7836 17.1534C77.1094 16.9527 77.367 16.6818 77.5564 16.3409C77.7458 16 77.8386 15.6174 77.8348 15.1932C77.8386 14.7765 77.7477 14.3996 77.5621 14.0625C77.3802 13.7254 77.1283 13.4583 76.8064 13.2614C76.4844 13.0644 76.117 12.9659 75.7041 12.9659C75.3973 12.9659 75.1113 13.0246 74.8461 13.142C74.581 13.2595 74.3499 13.4223 74.153 13.6307C73.956 13.8352 73.8007 14.0739 73.6871 14.3466C73.5772 14.6155 73.5204 14.9034 73.5166 15.2102C73.5204 15.6155 73.6151 15.9886 73.8007 16.3295C73.9863 16.6705 74.242 16.9432 74.5677 17.1477C74.8935 17.3523 75.2628 17.4545 75.6757 17.4545ZM81.5905 16.8409V15.1648L86.528 7.36364H87.9257V9.75H87.0734L83.7496 15.017V15.108H90.6416V16.8409H81.5905ZM87.1416 19V16.3295L87.1643 15.5795V7.36364H89.153V19H87.1416ZM96.4967 7.20455C97.0535 7.20833 97.5952 7.30682 98.1217 7.5C98.652 7.68939 99.1293 8 99.5535 8.43182C99.9778 8.85985 100.315 9.43371 100.565 10.1534C100.815 10.8731 100.94 11.7633 100.94 12.8239C100.944 13.8239 100.838 14.7178 100.622 15.5057C100.41 16.2898 100.105 16.9527 99.7069 17.4943C99.3092 18.036 98.83 18.4489 98.2694 18.733C97.7088 19.017 97.0782 19.1591 96.3774 19.1591C95.6425 19.1591 94.991 19.0152 94.4229 18.7273C93.8585 18.4394 93.402 18.0455 93.0535 17.5455C92.705 17.0455 92.491 16.4735 92.4115 15.8295H94.4854C94.5914 16.2917 94.8073 16.6591 95.1331 16.9318C95.4626 17.2008 95.8774 17.3352 96.3774 17.3352C97.1842 17.3352 97.8054 16.9848 98.241 16.2841C98.6766 15.5833 98.8944 14.6098 98.8944 13.3636H98.8149C98.6293 13.697 98.3888 13.9848 98.0933 14.2273C97.7979 14.4659 97.4626 14.6496 97.0876 14.7784C96.7164 14.9072 96.3225 14.9716 95.9058 14.9716C95.224 14.9716 94.6104 14.8087 94.0649 14.483C93.5232 14.1572 93.0933 13.7102 92.7751 13.142C92.4607 12.5739 92.3016 11.9242 92.2979 11.1932C92.2979 10.4356 92.4721 9.75568 92.8206 9.15341C93.1729 8.54735 93.6634 8.07008 94.2922 7.72159C94.921 7.36932 95.6558 7.19697 96.4967 7.20455ZM96.5024 8.90909C96.0933 8.90909 95.724 9.00947 95.3944 9.21023C95.0687 9.4072 94.8111 9.67614 94.6217 10.017C94.4361 10.3542 94.3433 10.7311 94.3433 11.1477C94.3471 11.5606 94.4399 11.9356 94.6217 12.2727C94.8073 12.6098 95.0592 12.8769 95.3774 13.0739C95.6994 13.2708 96.0668 13.3693 96.4797 13.3693C96.7865 13.3693 97.0725 13.3106 97.3376 13.1932C97.6028 13.0758 97.8338 12.9129 98.0308 12.7045C98.2316 12.4924 98.3869 12.2519 98.4967 11.983C98.6104 11.714 98.6653 11.4299 98.6615 11.1307C98.6615 10.733 98.5668 10.3655 98.3774 10.0284C98.1918 9.69129 97.9361 9.42045 97.6104 9.21591C97.2884 9.01136 96.9191 8.90909 96.5024 8.90909Z" fill="#101828"/>
<path d="M188 4C188 1.79086 189.791 0 192 0H228C230.209 0 232 1.79086 232 4V22C232 24.2091 230.209 26 228 26H192C189.791 26 188 24.2091 188 22V4Z" fill="#669F2A"/>
<path d="M199.104 12.0014V13.2713H195.175V12.0014H199.104ZM203.743 17.1193C203.175 17.1193 202.667 17.0128 202.218 16.7997C201.769 16.5838 201.412 16.2884 201.148 15.9134C200.887 15.5384 200.748 15.1094 200.73 14.6264H202.265C202.293 14.9844 202.448 15.277 202.729 15.5043C203.01 15.7287 203.348 15.8409 203.743 15.8409C204.053 15.8409 204.328 15.7699 204.57 15.6278C204.811 15.4858 205.002 15.2884 205.141 15.0355C205.28 14.7827 205.348 14.4943 205.346 14.1705C205.348 13.8409 205.279 13.5483 205.137 13.2926C204.995 13.0369 204.8 12.8366 204.553 12.6918C204.306 12.544 204.022 12.4702 203.701 12.4702C203.439 12.4673 203.182 12.5156 202.929 12.6151C202.676 12.7145 202.476 12.8452 202.328 13.0071L200.901 12.7727L201.357 8.27273H206.419V9.59375H202.665L202.414 11.9077H202.465C202.627 11.7173 202.855 11.5597 203.151 11.4347C203.446 11.3068 203.77 11.2429 204.123 11.2429C204.651 11.2429 205.123 11.3679 205.537 11.6179C205.952 11.8651 206.279 12.206 206.517 12.6406C206.756 13.0753 206.875 13.5724 206.875 14.1321C206.875 14.7088 206.742 15.223 206.475 15.6747C206.211 16.1236 205.843 16.4773 205.371 16.7358C204.902 16.9915 204.36 17.1193 203.743 17.1193ZM211.529 17.1662C210.827 17.1662 210.225 16.9886 209.722 16.6335C209.222 16.2756 208.837 15.7599 208.567 15.0866C208.3 14.4105 208.167 13.5966 208.167 12.6449C208.169 11.6932 208.304 10.8835 208.571 10.2159C208.841 9.54545 209.226 9.03409 209.726 8.68182C210.229 8.32955 210.83 8.15341 211.529 8.15341C212.228 8.15341 212.828 8.32955 213.331 8.68182C213.834 9.03409 214.219 9.54545 214.486 10.2159C214.756 10.8864 214.891 11.696 214.891 12.6449C214.891 13.5994 214.756 14.4148 214.486 15.0909C214.219 15.7642 213.834 16.2784 213.331 16.6335C212.831 16.9886 212.23 17.1662 211.529 17.1662ZM211.529 15.8324C212.074 15.8324 212.505 15.5639 212.82 15.027C213.138 14.4872 213.297 13.6932 213.297 12.6449C213.297 11.9517 213.225 11.3693 213.08 10.8977C212.935 10.4261 212.73 10.071 212.466 9.83239C212.202 9.59091 211.89 9.47017 211.529 9.47017C210.986 9.47017 210.557 9.74006 210.242 10.2798C209.926 10.8168 209.767 11.6051 209.765 12.6449C209.762 13.3409 209.831 13.9261 209.973 14.4006C210.118 14.875 210.323 15.233 210.587 15.4744C210.851 15.7131 211.165 15.8324 211.529 15.8324ZM220.973 15.3636V14.9034C220.973 14.5653 221.044 14.2543 221.186 13.9702C221.331 13.6861 221.541 13.4574 221.817 13.2841C222.092 13.1108 222.426 13.0241 222.818 13.0241C223.222 13.0241 223.56 13.1108 223.832 13.2841C224.105 13.4545 224.311 13.6818 224.45 13.9659C224.592 14.25 224.663 14.5625 224.663 14.9034V15.3636C224.663 15.7017 224.592 16.0128 224.45 16.2969C224.308 16.581 224.099 16.8097 223.824 16.983C223.551 17.1563 223.216 17.2429 222.818 17.2429C222.42 17.2429 222.084 17.1563 221.808 16.983C221.533 16.8097 221.324 16.581 221.182 16.2969C221.043 16.0128 220.973 15.7017 220.973 15.3636ZM222.085 14.9034V15.3636C222.085 15.5881 222.139 15.794 222.247 15.9815C222.355 16.169 222.545 16.2628 222.818 16.2628C223.094 16.2628 223.283 16.1705 223.385 15.9858C223.49 15.7983 223.543 15.5909 223.543 15.3636V14.9034C223.543 14.6761 223.493 14.4688 223.393 14.2812C223.294 14.0909 223.102 13.9957 222.818 13.9957C222.551 13.9957 222.362 14.0909 222.251 14.2812C222.141 14.4688 222.085 14.6761 222.085 14.9034ZM216.537 10.3693V9.90909C216.537 9.56818 216.609 9.25568 216.754 8.97159C216.899 8.6875 217.109 8.46023 217.385 8.28977C217.661 8.11648 217.994 8.02983 218.386 8.02983C218.787 8.02983 219.124 8.11648 219.396 8.28977C219.672 8.46023 219.879 8.6875 220.018 8.97159C220.158 9.25568 220.227 9.56818 220.227 9.90909V10.3693C220.227 10.7102 220.156 11.0227 220.014 11.3068C219.875 11.5881 219.668 11.8139 219.392 11.9844C219.116 12.1548 218.781 12.2401 218.386 12.2401C217.986 12.2401 217.648 12.1548 217.372 11.9844C217.099 11.8139 216.892 11.5866 216.75 11.3026C216.608 11.0185 216.537 10.7074 216.537 10.3693ZM217.658 9.90909V10.3693C217.658 10.5966 217.71 10.804 217.815 10.9915C217.923 11.1761 218.114 11.2685 218.386 11.2685C218.659 11.2685 218.847 11.1761 218.949 10.9915C219.054 10.804 219.107 10.5966 219.107 10.3693V9.90909C219.107 9.68182 219.057 9.47443 218.957 9.28693C218.858 9.09659 218.668 9.00142 218.386 9.00142C218.116 9.00142 217.928 9.09659 217.82 9.28693C217.712 9.47727 217.658 9.68466 217.658 9.90909ZM217.023 17L223.023 8.27273H224.088L218.088 17H217.023Z" fill="white"/>
<defs>
<clipPath id="clip0_2615_1610">
<rect width="52.001" height="24" fill="white" transform="translate(0 1)"/>
</clipPath>
</defs>
</svg>
