<svg width="73" height="22" viewBox="0 0 73 22" fill="none" xmlns="http://www.w3.org/2000/svg">
<path d="M0 4C0 1.79086 1.79086 0 4 0H69C71.2091 0 73 1.79086 73 4V18C73 20.2091 71.2091 22 69 22H4C1.79086 22 0 20.2091 0 18V4Z" fill="#F9F5FF"/>
<circle cx="11" cy="11" r="3" fill="#7F56D9"/>
<path d="M25.8295 8.45455C25.7784 8.02273 25.571 7.6875 25.2074 7.44886C24.8438 7.21023 24.3977 7.09091 23.8693 7.09091C23.483 7.09091 23.1449 7.15341 22.8551 7.27841C22.5682 7.40341 22.3438 7.57528 22.1818 7.79403C22.0227 8.01278 21.9432 8.26136 21.9432 8.53977C21.9432 8.77273 21.9986 8.97301 22.1094 9.14062C22.223 9.3054 22.3679 9.44318 22.544 9.55398C22.7202 9.66193 22.9048 9.75142 23.098 9.82244C23.2912 9.89062 23.4688 9.94602 23.6307 9.98864L24.517 10.2273C24.7443 10.2869 24.9972 10.3693 25.2756 10.4744C25.5568 10.5795 25.8253 10.723 26.081 10.9048C26.3395 11.0838 26.5526 11.3139 26.7202 11.5952C26.8878 11.8764 26.9716 12.2216 26.9716 12.6307C26.9716 13.1023 26.848 13.5284 26.6009 13.9091C26.3565 14.2898 25.9986 14.5923 25.527 14.8168C25.0582 15.0412 24.4886 15.1534 23.8182 15.1534C23.1932 15.1534 22.652 15.0526 22.1946 14.8509C21.7401 14.6491 21.3821 14.3679 21.1207 14.0071C20.8622 13.6463 20.7159 13.2273 20.6818 12.75H21.7727C21.8011 13.0795 21.9119 13.3523 22.1051 13.5682C22.3011 13.7812 22.5483 13.9403 22.8466 14.0455C23.1477 14.1477 23.4716 14.1989 23.8182 14.1989C24.2216 14.1989 24.5838 14.1335 24.9048 14.0028C25.2259 13.8693 25.4801 13.6847 25.6676 13.4489C25.8551 13.2102 25.9489 12.9318 25.9489 12.6136C25.9489 12.3239 25.8679 12.0881 25.706 11.9062C25.544 11.7244 25.331 11.5767 25.0668 11.4631C24.8026 11.3494 24.517 11.25 24.2102 11.1648L23.1364 10.858C22.4545 10.6619 21.9148 10.3821 21.517 10.0185C21.1193 9.65483 20.9205 9.17898 20.9205 8.59091C20.9205 8.10227 21.0526 7.67614 21.3168 7.3125C21.5838 6.94602 21.9418 6.66193 22.3906 6.46023C22.8423 6.25568 23.3466 6.15341 23.9034 6.15341C24.4659 6.15341 24.9659 6.25426 25.4034 6.45597C25.8409 6.65483 26.1875 6.92756 26.4432 7.27415C26.7017 7.62074 26.8381 8.0142 26.8523 8.45455H25.8295ZM29.5785 11.0625V15H28.5728V6.27273H29.5785V9.47727H29.6637C29.8171 9.1392 30.0472 8.87074 30.354 8.67188C30.6637 8.47017 31.0756 8.36932 31.5898 8.36932C32.0359 8.36932 32.4265 8.45881 32.7617 8.63778C33.0969 8.81392 33.3569 9.08523 33.5415 9.4517C33.729 9.81534 33.8228 10.2784 33.8228 10.8409V15H32.8171V10.9091C32.8171 10.3892 32.6822 9.98722 32.4123 9.70312C32.1452 9.41619 31.7745 9.27273 31.3001 9.27273C30.9705 9.27273 30.6751 9.34233 30.4137 9.48153C30.1552 9.62074 29.9506 9.82386 29.8001 10.0909C29.6523 10.358 29.5785 10.6818 29.5785 11.0625ZM38.3217 15.1364C37.7308 15.1364 37.2124 14.9957 36.7663 14.7145C36.3232 14.4332 35.9766 14.0398 35.7266 13.5341C35.4794 13.0284 35.3558 12.4375 35.3558 11.7614C35.3558 11.0795 35.4794 10.4844 35.7266 9.97585C35.9766 9.46733 36.3232 9.07244 36.7663 8.79119C37.2124 8.50994 37.7308 8.36932 38.3217 8.36932C38.9126 8.36932 39.4297 8.50994 39.8729 8.79119C40.3189 9.07244 40.6655 9.46733 40.9126 9.97585C41.1626 10.4844 41.2876 11.0795 41.2876 11.7614C41.2876 12.4375 41.1626 13.0284 40.9126 13.5341C40.6655 14.0398 40.3189 14.4332 39.8729 14.7145C39.4297 14.9957 38.9126 15.1364 38.3217 15.1364ZM38.3217 14.233C38.7706 14.233 39.1399 14.1179 39.4297 13.8878C39.7195 13.6577 39.9339 13.3551 40.0732 12.9801C40.2124 12.6051 40.282 12.1989 40.282 11.7614C40.282 11.3239 40.2124 10.9162 40.0732 10.5384C39.9339 10.1605 39.7195 9.85511 39.4297 9.62216C39.1399 9.3892 38.7706 9.27273 38.3217 9.27273C37.8729 9.27273 37.5036 9.3892 37.2138 9.62216C36.924 9.85511 36.7095 10.1605 36.5703 10.5384C36.4311 10.9162 36.3615 11.3239 36.3615 11.7614C36.3615 12.1989 36.4311 12.6051 36.5703 12.9801C36.7095 13.3551 36.924 13.6577 37.2138 13.8878C37.5036 14.1179 37.8729 14.233 38.3217 14.233ZM45.4819 15.1364C44.891 15.1364 44.3725 14.9957 43.9265 14.7145C43.4833 14.4332 43.1367 14.0398 42.8867 13.5341C42.6396 13.0284 42.516 12.4375 42.516 11.7614C42.516 11.0795 42.6396 10.4844 42.8867 9.97585C43.1367 9.46733 43.4833 9.07244 43.9265 8.79119C44.3725 8.50994 44.891 8.36932 45.4819 8.36932C46.0728 8.36932 46.5898 8.50994 47.033 8.79119C47.479 9.07244 47.8256 9.46733 48.0728 9.97585C48.3228 10.4844 48.4478 11.0795 48.4478 11.7614C48.4478 12.4375 48.3228 13.0284 48.0728 13.5341C47.8256 14.0398 47.479 14.4332 47.033 14.7145C46.5898 14.9957 46.0728 15.1364 45.4819 15.1364ZM45.4819 14.233C45.9308 14.233 46.3001 14.1179 46.5898 13.8878C46.8796 13.6577 47.0941 13.3551 47.2333 12.9801C47.3725 12.6051 47.4421 12.1989 47.4421 11.7614C47.4421 11.3239 47.3725 10.9162 47.2333 10.5384C47.0941 10.1605 46.8796 9.85511 46.5898 9.62216C46.3001 9.3892 45.9308 9.27273 45.4819 9.27273C45.033 9.27273 44.6637 9.3892 44.3739 9.62216C44.0842 9.85511 43.8697 10.1605 43.7305 10.5384C43.5913 10.9162 43.5217 11.3239 43.5217 11.7614C43.5217 12.1989 43.5913 12.6051 43.7305 12.9801C43.8697 13.3551 44.0842 13.6577 44.3739 13.8878C44.6637 14.1179 45.033 14.233 45.4819 14.233ZM52.8295 8.45455V9.30682H49.4375V8.45455H52.8295ZM50.4261 6.88636H51.4318V13.125C51.4318 13.4091 51.473 13.6222 51.5554 13.7642C51.6406 13.9034 51.7486 13.9972 51.8793 14.0455C52.0128 14.0909 52.1534 14.1136 52.3011 14.1136C52.4119 14.1136 52.5028 14.108 52.5739 14.0966C52.6449 14.0824 52.7017 14.071 52.7443 14.0625L52.9489 14.9659C52.8807 14.9915 52.7855 15.017 52.6634 15.0426C52.5412 15.071 52.3864 15.0852 52.1989 15.0852C51.9148 15.0852 51.6364 15.0241 51.3636 14.902C51.0938 14.7798 50.8693 14.5938 50.6903 14.3438C50.5142 14.0938 50.4261 13.7784 50.4261 13.3977V6.88636ZM57.0163 15.1364C56.3857 15.1364 55.8416 14.9972 55.3842 14.7188C54.9297 14.4375 54.5788 14.0455 54.3317 13.5426C54.0874 13.0369 53.9652 12.4489 53.9652 11.7784C53.9652 11.108 54.0874 10.517 54.3317 10.0057C54.5788 9.49148 54.9226 9.09091 55.3629 8.80398C55.8061 8.5142 56.3232 8.36932 56.9141 8.36932C57.255 8.36932 57.5916 8.42614 57.924 8.53977C58.2564 8.65341 58.5589 8.83807 58.8317 9.09375C59.1044 9.34659 59.3217 9.68182 59.4837 10.0994C59.6456 10.517 59.7266 11.0312 59.7266 11.642V12.0682H54.6811V11.1989H58.7038C58.7038 10.8295 58.63 10.5 58.4822 10.2102C58.3374 9.92045 58.13 9.69176 57.8601 9.52415C57.593 9.35653 57.2777 9.27273 56.9141 9.27273C56.5135 9.27273 56.1669 9.37216 55.8743 9.57102C55.5845 9.76705 55.3615 10.0227 55.2053 10.3381C55.049 10.6534 54.9709 10.9915 54.9709 11.3523V11.9318C54.9709 12.4261 55.0561 12.8452 55.2266 13.1889C55.3999 13.5298 55.6399 13.7898 55.9467 13.9688C56.2536 14.1449 56.6101 14.233 57.0163 14.233C57.2805 14.233 57.5192 14.196 57.7322 14.1222C57.9482 14.0455 58.1342 13.9318 58.2905 13.7812C58.4467 13.6278 58.5675 13.4375 58.6527 13.2102L59.6243 13.483C59.522 13.8125 59.3501 14.1023 59.1087 14.3523C58.8672 14.5994 58.5689 14.7926 58.2138 14.9318C57.8587 15.0682 57.4595 15.1364 57.0163 15.1364ZM61.2564 15V8.45455H62.228V9.44318H62.2962C62.4155 9.11932 62.6314 8.85653 62.9439 8.65483C63.2564 8.45312 63.6087 8.35227 64.0007 8.35227C64.0746 8.35227 64.1669 8.35369 64.2777 8.35653C64.3885 8.35937 64.4723 8.36364 64.5291 8.36932V9.39205C64.495 9.38352 64.4169 9.37074 64.2947 9.35369C64.1754 9.33381 64.049 9.32386 63.9155 9.32386C63.5973 9.32386 63.3132 9.39062 63.0632 9.52415C62.8161 9.65483 62.62 9.83665 62.4751 10.0696C62.3331 10.2997 62.2621 10.5625 62.2621 10.858V15H61.2564Z" fill="#7F56D9"/>
</svg>
