<svg width="65" height="22" viewBox="0 0 65 22" fill="none" xmlns="http://www.w3.org/2000/svg">
<path d="M0 4C0 1.79086 1.79086 0 4 0H61C63.2091 0 65 1.79086 65 4V18C65 20.2091 63.2091 22 61 22H4C1.79086 22 0 20.2091 0 18V4Z" fill="#FFFAEB"/>
<circle cx="11" cy="11" r="3" fill="#DC6803"/>
<path d="M21.4148 15H20.3068L23.5114 6.27273H24.6023L27.8068 15H26.6989L24.0909 7.65341H24.0227L21.4148 15ZM21.8239 11.5909H26.2898V12.5284H21.8239V11.5909ZM31.6889 15.1364C31.0753 15.1364 30.5469 14.9915 30.1037 14.7017C29.6605 14.4119 29.3196 14.0128 29.081 13.5043C28.8423 12.9957 28.723 12.4148 28.723 11.7614C28.723 11.0966 28.8452 10.5099 29.0895 10.0014C29.3366 9.49006 29.6804 9.09091 30.1207 8.80398C30.5639 8.5142 31.081 8.36932 31.6719 8.36932C32.1321 8.36932 32.5469 8.45455 32.9162 8.625C33.2855 8.79545 33.5881 9.03409 33.8239 9.34091C34.0597 9.64773 34.206 10.0057 34.2628 10.4148H33.2571C33.1804 10.1165 33.0099 9.85227 32.7457 9.62216C32.4844 9.3892 32.1321 9.27273 31.6889 9.27273C31.2969 9.27273 30.9531 9.375 30.6577 9.57955C30.3651 9.78125 30.1364 10.0668 29.9716 10.4361C29.8097 10.8026 29.7287 11.233 29.7287 11.7273C29.7287 12.233 29.8082 12.6733 29.9673 13.0483C30.1293 13.4233 30.3565 13.7145 30.6491 13.9219C30.9446 14.1293 31.2912 14.233 31.6889 14.233C31.9503 14.233 32.1875 14.1875 32.4006 14.0966C32.6136 14.0057 32.794 13.875 32.9418 13.7045C33.0895 13.5341 33.1946 13.3295 33.2571 13.0909H34.2628C34.206 13.4773 34.0653 13.8253 33.8409 14.1349C33.6193 14.4418 33.3253 14.6861 32.9588 14.8679C32.5952 15.0469 32.1719 15.1364 31.6889 15.1364ZM38.5795 8.45455V9.30682H35.1875V8.45455H38.5795ZM36.1761 6.88636H37.1818V13.125C37.1818 13.4091 37.223 13.6222 37.3054 13.7642C37.3906 13.9034 37.4986 13.9972 37.6293 14.0455C37.7628 14.0909 37.9034 14.1136 38.0511 14.1136C38.1619 14.1136 38.2528 14.108 38.3239 14.0966C38.3949 14.0824 38.4517 14.071 38.4943 14.0625L38.6989 14.9659C38.6307 14.9915 38.5355 15.017 38.4134 15.0426C38.2912 15.071 38.1364 15.0852 37.9489 15.0852C37.6648 15.0852 37.3864 15.0241 37.1136 14.902C36.8438 14.7798 36.6193 14.5938 36.4403 14.3438C36.2642 14.0938 36.1761 13.7784 36.1761 13.3977V6.88636ZM40.0923 15V8.45455H41.098V15H40.0923ZM40.6037 7.36364C40.4077 7.36364 40.2386 7.29688 40.0966 7.16335C39.9574 7.02983 39.8878 6.86932 39.8878 6.68182C39.8878 6.49432 39.9574 6.33381 40.0966 6.20028C40.2386 6.06676 40.4077 6 40.6037 6C40.7997 6 40.9673 6.06676 41.1065 6.20028C41.2486 6.33381 41.3196 6.49432 41.3196 6.68182C41.3196 6.86932 41.2486 7.02983 41.1065 7.16335C40.9673 7.29688 40.7997 7.36364 40.6037 7.36364ZM45.5991 15.1364C45.0082 15.1364 44.4897 14.9957 44.0437 14.7145C43.6005 14.4332 43.2539 14.0398 43.0039 13.5341C42.7567 13.0284 42.6332 12.4375 42.6332 11.7614C42.6332 11.0795 42.7567 10.4844 43.0039 9.97585C43.2539 9.46733 43.6005 9.07244 44.0437 8.79119C44.4897 8.50994 45.0082 8.36932 45.5991 8.36932C46.19 8.36932 46.707 8.50994 47.1502 8.79119C47.5962 9.07244 47.9428 9.46733 48.19 9.97585C48.44 10.4844 48.565 11.0795 48.565 11.7614C48.565 12.4375 48.44 13.0284 48.19 13.5341C47.9428 14.0398 47.5962 14.4332 47.1502 14.7145C46.707 14.9957 46.19 15.1364 45.5991 15.1364ZM45.5991 14.233C46.0479 14.233 46.4173 14.1179 46.707 13.8878C46.9968 13.6577 47.2113 13.3551 47.3505 12.9801C47.4897 12.6051 47.5593 12.1989 47.5593 11.7614C47.5593 11.3239 47.4897 10.9162 47.3505 10.5384C47.2113 10.1605 46.9968 9.85511 46.707 9.62216C46.4173 9.3892 46.0479 9.27273 45.5991 9.27273C45.1502 9.27273 44.7809 9.3892 44.4911 9.62216C44.2013 9.85511 43.9869 10.1605 43.8477 10.5384C43.7085 10.9162 43.6388 11.3239 43.6388 11.7614C43.6388 12.1989 43.7085 12.6051 43.8477 12.9801C43.9869 13.3551 44.2013 13.6577 44.4911 13.8878C44.7809 14.1179 45.1502 14.233 45.5991 14.233ZM51.1058 11.0625V15H50.1001V8.45455H51.0717V9.47727H51.157C51.3104 9.14489 51.5433 8.87784 51.8558 8.67614C52.1683 8.47159 52.5717 8.36932 53.0661 8.36932C53.5092 8.36932 53.897 8.46023 54.2294 8.64205C54.5618 8.82102 54.8203 9.09375 55.005 9.46023C55.1896 9.82386 55.282 10.2841 55.282 10.8409V15H54.2763V10.9091C54.2763 10.3949 54.1428 9.99432 53.8757 9.70739C53.6087 9.41761 53.2422 9.27273 52.7763 9.27273C52.4553 9.27273 52.1683 9.34233 51.9155 9.48153C51.6655 9.62074 51.468 9.82386 51.3232 10.0909C51.1783 10.358 51.1058 10.6818 51.1058 11.0625Z" fill="#DC6803"/>
</svg>
